<svg xmlns="http://www.w3.org/2000/svg" viewBox="0 0 24 24"><defs><style>.b{fill:#e7c930}.c{fill:#864e20}</style></defs><rect x="1" y="1" width="22" height="22" rx="7.656" style="fill:#f8de40"/><path class="b" d="M23 13.938a14.69 14.69 0 0 1-12.406 6.531c-5.542 0-6.563-1-9.142-2.529A7.66 7.66 0 0 0 8.656 23h6.688A7.656 7.656 0 0 0 23 15.344z"/><path class="c" d="M18.29 9.084h-4.1a.586.586 0 0 1 0-1.171h4.1a.586.586 0 0 1 0 1.171zM9.806 9.084H5.71a.586.586 0 0 1 0-1.171h4.1a.586.586 0 0 1 0 1.171z"/><path class="c" d="M7.758 10.205A1.707 1.707 0 0 0 9.465 8.5H6.051a1.707 1.707 0 0 0 1.707 1.705zM16.242 10.205A1.707 1.707 0 0 0 17.949 8.5h-3.414a1.707 1.707 0 0 0 1.707 1.705zM7.3 15.353s3.75-2.125 6.625-2.312 3.906.219 2.656.5-2.906-.156-5.484.734-4.528 1.61-3.797 1.078z"/><path class="b" d="M13.585 14.614c-1.384-.09-3.474 1.357-3.474 1.357-.427.379.6-.052 1.954-.572s2.066-.015 2.7-.141.205-.558-1.18-.644z"/></svg>