<svg xmlns="http://www.w3.org/2000/svg" viewBox="0 0 24 24"><defs><style>.b{fill:#e7c930}.c{fill:#864e20}</style></defs><rect x="1" y="1" width="22" height="22" rx="7.656" style="fill:#f8de40"/><path class="b" d="M23 13.938a14.69 14.69 0 0 1-12.406 6.531c-5.542 0-6.563-1-9.142-2.529A7.66 7.66 0 0 0 8.656 23h6.688A7.656 7.656 0 0 0 23 15.344z"/><path class="c" d="M14.948 6.468c.376.207.728.4 1.082.58.469.242.926.473 1.4.679.114.061.236.1.354.154l.175.08c.059.028.121.045.181.072l.355.15.01.005c.121.044.242.09.364.14.244.112.5.187.757.3.13.055.263.105.4.161A.173.173 0 0 1 20 9.12a3.068 3.068 0 0 1-.438.09 4.466 4.466 0 0 1-.888.028c-.147-.011-.3-.023-.444-.044s-.291-.061-.437-.093a3.6 3.6 0 0 1-.43-.129c-.139-.055-.283-.1-.418-.165a4.86 4.86 0 0 1-1.469-1.019 3.725 3.725 0 0 1-.776-1.105.173.173 0 0 1 .248-.215z"/><path class="c" d="M16.938 8.808c.135.066.279.11.418.165a3.6 3.6 0 0 0 .43.129c.146.032.29.068.437.093s.3.033.444.044h.066a1.747 1.747 0 1 1-3.091-1.288 4.821 4.821 0 0 0 1.296.857zM7.3 15.353s3.75-2.125 6.625-2.312 3.906.219 2.656.5-2.906-.156-5.484.734-4.528 1.61-3.797 1.078z"/><path class="b" d="M13.585 14.614c-1.384-.09-3.474 1.357-3.474 1.357-.427.379.6-.052 1.954-.572s2.066-.015 2.7-.141.205-.558-1.18-.644z"/><path d="M14.688 1H8.656A7.656 7.656 0 0 0 1 8.656v6.688C14.292 15.344 14.688 1 14.688 1z" style="fill:#cab24f"/><path d="M14.688 1H8.656a7.784 7.784 0 0 0-.812.043C8.729 9.044 1 13.687 1 13.687v1.657C14.292 15.344 14.688 1 14.688 1z" style="fill:#ffed9f"/><path d="M1.714 5.427A7.631 7.631 0 0 0 1 8.656v5.031a16.755 16.755 0 0 0 5.6-6.061 15.14 15.14 0 0 0-4.886-2.199z" style="fill:#dcc562"/></svg>