<svg xmlns="http://www.w3.org/2000/svg" viewBox="0 0 24 24"><defs><style>.c{fill:#864e20}</style></defs><rect x="1" y="1" width="22" height="22" rx="7.656" style="fill:#f8de40"/><path d="M23 13.938a14.688 14.688 0 0 1-12.406 6.531c-5.542 0-6.563-1-9.142-2.529A7.66 7.66 0 0 0 8.656 23h6.688A7.656 7.656 0 0 0 23 15.344z" style="fill:#e7c930"/><path class="c" d="M16.666 12.583H7.334a.493.493 0 0 0-.492.544c.123 1.175.875 3.842 5.158 3.842s5.035-2.667 5.158-3.842a.493.493 0 0 0-.492-.544z"/><path d="M12 16.969a6.538 6.538 0 0 0 2.959-.6 1.979 1.979 0 0 0-1.209-.853c-1.344-.3-1.75.109-1.75.109s-.406-.406-1.75-.109a1.979 1.979 0 0 0-1.209.853 6.538 6.538 0 0 0 2.959.6z" style="fill:#f06880"/><path class="c" d="M9.052 6.468c-.376.207-.728.4-1.082.58-.469.242-.926.473-1.4.679-.114.061-.236.1-.354.154l-.175.08c-.059.028-.121.045-.181.072l-.355.15-.01.005c-.121.044-.242.09-.364.14-.244.112-.5.187-.757.3-.13.055-.263.105-.4.161A.173.173 0 0 0 4 9.12a3.068 3.068 0 0 0 .438.09 4.466 4.466 0 0 0 .888.028c.147-.011.3-.023.444-.044s.291-.061.437-.093a3.6 3.6 0 0 0 .43-.129c.139-.055.283-.1.418-.165a4.86 4.86 0 0 0 1.476-1.018A3.725 3.725 0 0 0 9.3 6.683a.173.173 0 0 0-.248-.215z"/><path class="c" d="M7.062 8.808c-.135.066-.279.11-.418.165a3.6 3.6 0 0 1-.43.129c-.146.032-.29.068-.437.093s-.3.033-.444.044h-.066a1.747 1.747 0 1 0 3.091-1.284 4.821 4.821 0 0 1-1.296.853zM14.948 6.468c.376.207.728.4 1.082.58.469.242.926.473 1.4.679.114.061.236.1.354.154l.175.08c.059.028.121.045.181.072l.355.15.01.005c.121.044.242.09.364.14.244.112.5.187.757.3.13.055.263.105.4.161A.173.173 0 0 1 20 9.12a3.068 3.068 0 0 1-.438.09 4.466 4.466 0 0 1-.888.028c-.147-.011-.3-.023-.444-.044s-.291-.061-.437-.093a3.6 3.6 0 0 1-.43-.129c-.139-.055-.283-.1-.418-.165a4.86 4.86 0 0 1-1.469-1.019 3.725 3.725 0 0 1-.776-1.105.173.173 0 0 1 .248-.215z"/><path class="c" d="M16.938 8.808c.135.066.279.11.418.165a3.6 3.6 0 0 0 .43.129c.146.032.29.068.437.093s.3.033.444.044h.066a1.747 1.747 0 1 1-3.091-1.288 4.821 4.821 0 0 0 1.296.857z"/><path d="M5.32 5.007A6.6 6.6 0 0 0 3.167 1a6.6 6.6 0 0 0-2.154 4.007c-.175 2.329 1.477 2.78 2.154 2.78S5.5 7.336 5.32 5.007z" style="fill:#26a9e0"/></svg>