<svg xmlns="http://www.w3.org/2000/svg" viewBox="0 0 24 24"><defs><style>.b{fill:#864e20}.e{fill:#26a9e0}</style></defs><rect x="1" y="1" width="22" height="22" rx="7.656" style="fill:#f8de40"/><path class="b" d="M8.907 8.275a.182.182 0 0 0-.331-.1 2.016 2.016 0 0 1-.569.567 1.728 1.728 0 0 1-1.915 0 2.029 2.029 0 0 1-.571-.569.182.182 0 0 0-.331.1 1.63 1.63 0 0 0 .346 1.022 1.926 1.926 0 0 0 3.026 0 1.636 1.636 0 0 0 .345-1.02zM18.81 8.275a.182.182 0 0 0-.331-.1 2.026 2.026 0 0 1-.568.567 1.73 1.73 0 0 1-1.916 0 2.029 2.029 0 0 1-.571-.569.182.182 0 0 0-.331.1 1.63 1.63 0 0 0 .346 1.022 1.926 1.926 0 0 0 3.026 0 1.636 1.636 0 0 0 .345-1.02z"/><path d="M23 13.938a14.69 14.69 0 0 1-12.406 6.531c-5.542 0-6.563-1-9.142-2.529A7.66 7.66 0 0 0 8.656 23h6.688A7.656 7.656 0 0 0 23 15.344z" style="fill:#e7c930"/><ellipse class="b" cx="12" cy="14.036" rx="3.389" ry="4.977"/><path d="M9.232 16.907A3.258 3.258 0 0 0 12 19.013a3.258 3.258 0 0 0 2.768-2.106 2.699 2.699 0 0 0-.227-.062C12.59 16.414 12 17 12 17s-.59-.59-2.541-.159a6.133 6.133 0 0 0-.227.066z" style="fill:#f06880"/><path class="e" d="m17.376 3.623-.273.065c-.25.059-.5.123-.747.195-.124.036-.248.072-.371.113s-.246.082-.368.129c.131.007.261.007.39.007s.259 0 .388-.01a.09.09 0 0 1 .069.152q-.169.176-.335.354c-.139.151-.275.3-.41.457s-.266.309-.4.467l-.214.26a.09.09 0 0 0 .078.146l.315-.03c.345-.032.691-.072 1.035-.124.173-.026.345-.055.517-.089a.09.09 0 0 0-.009-.177 13.124 13.124 0 0 0-1.032-.055l.068-.072c.138-.151.276-.3.41-.456.27-.307.531-.621.783-.945l.19-.244a.09.09 0 0 0-.084-.143zM20.513 11.417l-.274.065c-.249.059-.5.123-.746.2-.124.036-.248.072-.371.113s-.246.082-.368.129a10.047 10.047 0 0 0 .778-.003.09.09 0 0 1 .069.152q-.169.176-.335.354c-.139.151-.275.3-.41.456s-.267.31-.4.468l-.213.26a.089.089 0 0 0 .077.146l.315-.03a18.17 18.17 0 0 0 1.036-.124c.172-.026.345-.055.517-.089a.09.09 0 0 0-.009-.177 13.258 13.258 0 0 0-1.032-.055l.068-.072c.138-.151.276-.3.41-.456.269-.307.531-.621.783-.945l.189-.244a.089.089 0 0 0-.084-.148zM22.835 1l-.409.1c-.372.089-.744.184-1.114.29-.184.055-.369.109-.553.17s-.367.121-.549.193c.2.01.389.01.582.009s.386-.007.578-.014h.007a.134.134 0 0 1 .1.227 31.172 31.172 0 0 0-1.703 1.909l-.319.387a.134.134 0 0 0 .116.218l.47-.043a27.038 27.038 0 0 0 1.546-.187q.386-.057.771-.131h.007a.134.134 0 0 0-.013-.264h-.007q-.392-.036-.781-.055a24.114 24.114 0 0 0-.76-.027l.1-.107q.31-.337.612-.68c.4-.459.793-.928 1.168-1.411l.283-.364a.133.133 0 0 0-.132-.22z"/></svg>