<svg xmlns="http://www.w3.org/2000/svg" xmlns:xlink="http://www.w3.org/1999/xlink" width="1080" zoomAndPan="magnify" viewBox="0 0 810 809.999993" height="1080" preserveAspectRatio="xMidYMid meet" version="1.0"><defs><clipPath id="b721d0f4e7"><path d="M 600 281.050781 L 760.59375 281.050781 L 760.59375 529 L 600 529 Z M 600 281.050781 " clip-rule="nonzero"/></clipPath><clipPath id="1b4c4de3ea"><path d="M 748.804688 428.539062 L 629.375 524.875 C 624 529.210938 616.613281 530.074219 610.382812 527.097656 C 604.152344 524.117188 600.1875 517.824219 600.1875 510.921875 L 600.1875 299.070312 C 600.1875 292.164062 604.152344 285.871094 610.382812 282.890625 C 616.613281 279.914062 624 280.777344 629.375 285.113281 L 748.804688 381.449219 C 755.921875 387.191406 760.058594 395.847656 760.058594 404.996094 C 760.058594 414.140625 755.921875 422.796875 748.804688 428.539062 Z M 748.804688 428.539062 " clip-rule="nonzero"/></clipPath><clipPath id="9912503f94"><path d="M 0 0.0507812 L 160.078125 0.0507812 L 160.078125 248 L 0 248 Z M 0 0.0507812 " clip-rule="nonzero"/></clipPath><clipPath id="736d4358a9"><path d="M 148.804688 147.539062 L 29.375 243.875 C 24 248.210938 16.613281 249.074219 10.382812 246.097656 C 4.152344 243.117188 0.1875 236.824219 0.1875 229.921875 L 0.1875 18.070312 C 0.1875 11.164062 4.152344 4.871094 10.382812 1.890625 C 16.613281 -1.085938 24 -0.222656 29.375 4.113281 L 148.804688 100.449219 C 155.921875 106.191406 160.058594 114.847656 160.058594 123.996094 C 160.058594 133.140625 155.921875 141.796875 148.804688 147.539062 Z M 148.804688 147.539062 " clip-rule="nonzero"/></clipPath><clipPath id="81731a3a86"><rect x="0" width="161" y="0" height="248"/></clipPath><clipPath id="583db7e830"><path d="M 75 71 L 633 71 L 633 743.5625 L 75 743.5625 Z M 75 71 " clip-rule="nonzero"/></clipPath></defs><g clip-path="url(#b721d0f4e7)"><g clip-path="url(#1b4c4de3ea)"><g transform="matrix(1, 0, 0, 1, 600, 281)"><g clip-path="url(#81731a3a86)"><g clip-path="url(#9912503f94)"><g clip-path="url(#736d4358a9)"><rect x="-778.2" width="1166.4" fill="#2b7cceff" height="1166.39999" y="-459.199998" fill-opacity="1"/></g></g></g></g></g></g><g clip-path="url(#583db7e830)"><path fill="#2b7cceff" d="M 100.867188 644.964844 C 122.917969 682.769531 156.527344 711.125 199.582031 727.929688 C 226.363281 738.429688 254.71875 743.679688 284.648438 743.679688 C 296.726562 743.679688 309.328125 742.632812 321.929688 741.054688 C 370.238281 734.753906 413.820312 715.851562 452.152344 684.871094 C 452.675781 684.347656 453.726562 683.820312 454.253906 683.296875 C 454.253906 683.296875 477.882812 710.601562 486.808594 721.628906 C 490.484375 726.351562 495.210938 728.453125 500.984375 728.453125 C 525.664062 728.453125 604.953125 728.453125 604.953125 728.453125 C 618.605469 728.453125 623.855469 721.101562 624.90625 717.953125 C 626.480469 714.800781 628.582031 705.875 619.65625 695.371094 L 528.816406 591.40625 C 539.316406 572.5 547.191406 552.023438 552.96875 527.867188 C 557.695312 508.964844 560.320312 489.011719 562.421875 463.808594 L 600.753906 463.808594 C 618.082031 463.808594 632.257812 449.628906 632.257812 432.300781 L 632.257812 388.195312 C 632.257812 370.867188 618.082031 356.6875 600.753906 356.6875 L 487.332031 356.6875 C 470.003906 356.6875 455.828125 370.867188 455.828125 388.195312 C 455.828125 401.847656 454.777344 419.175781 454.777344 429.675781 C 454.777344 460.132812 446.375 497.9375 445.851562 499.515625 L 361.3125 404.472656 C 380.738281 392.394531 403.84375 376.117188 423.273438 354.589844 C 461.078125 313.105469 475.78125 263.222656 466.328125 205.988281 C 458.453125 154.527344 429.574219 116.199219 380.738281 92.042969 C 338.207031 71.039062 290.949219 66.3125 241.589844 77.867188 C 203.257812 87.316406 172.277344 107.796875 149.699219 137.726562 C 132.371094 160.304688 122.394531 187.609375 118.71875 218.066406 C 115.570312 249.570312 119.242188 277.925781 130.269531 303.65625 C 138.148438 321.507812 149.175781 338.835938 166.503906 359.839844 C 170.179688 364.039062 173.328125 368.242188 177.003906 371.917969 C 171.226562 376.117188 164.925781 380.84375 158.625 385.042969 C 130.269531 407.097656 109.265625 431.253906 95.613281 458.558594 C 79.863281 489.011719 73.035156 523.144531 75.660156 559.898438 C 77.761719 590.878906 86.164062 619.757812 100.867188 644.964844 Z M 225.835938 229.617188 C 228.464844 206.511719 238.964844 189.710938 259.441406 179.734375 C 281.496094 169.230469 304.074219 169.230469 325.605469 179.734375 C 348.707031 190.761719 359.210938 214.914062 359.210938 240.117188 C 359.210938 267.949219 347.132812 289.476562 325.605469 305.230469 C 312.476562 314.683594 297.773438 322.558594 284.121094 331.484375 C 283.597656 332.011719 281.496094 331.484375 280.972656 330.960938 C 265.746094 315.207031 249.992188 299.980469 238.441406 280.550781 C 228.988281 265.324219 223.738281 248.519531 225.835938 229.617188 Z M 214.8125 470.109375 C 227.414062 460.132812 240.539062 451.207031 254.191406 441.753906 C 300.402344 494.789062 346.082031 546.773438 391.765625 599.28125 C 385.992188 606.105469 379.6875 611.882812 372.335938 616.609375 C 356.585938 627.109375 338.730469 632.886719 320.355469 636.039062 C 298.300781 639.1875 276.769531 639.1875 255.242188 633.410156 C 231.089844 626.585938 210.609375 613.457031 196.957031 591.40625 C 177.003906 559.375 174.378906 502.664062 214.8125 470.109375 Z M 214.8125 470.109375 " fill-opacity="1" fill-rule="nonzero"/></g></svg>