<svg xmlns="http://www.w3.org/2000/svg" xmlns:xlink="http://www.w3.org/1999/xlink" width="810" zoomAndPan="magnify" viewBox="0 0 607.5 607.499986" height="810" preserveAspectRatio="xMidYMid meet" version="1.0"><defs><g/><clipPath id="c94fd30859"><path d="M 429.515625 157.539062 L 539.234375 157.539062 L 539.234375 328 L 429.515625 328 Z M 429.515625 157.539062 " clip-rule="nonzero"/></clipPath><clipPath id="099c435359"><path d="M 531.882812 257.996094 L 448.378906 325.351562 C 444.925781 328.136719 440.175781 328.691406 436.167969 326.777344 C 432.164062 324.863281 429.613281 320.816406 429.613281 316.375 L 429.613281 169.335938 C 429.613281 164.894531 432.164062 160.847656 436.167969 158.933594 C 440.175781 157.019531 444.925781 157.574219 448.378906 160.359375 L 531.882812 227.714844 C 536.457031 231.410156 539.121094 236.972656 539.121094 242.855469 C 539.121094 248.738281 536.457031 254.300781 531.882812 257.996094 Z M 531.882812 257.996094 " clip-rule="nonzero"/></clipPath><clipPath id="3f8f477b49"><path d="M 531.882812 257.996094 L 448.378906 325.351562 C 444.925781 328.136719 440.175781 328.691406 436.167969 326.777344 C 432.164062 324.863281 429.613281 320.816406 429.613281 316.375 L 429.613281 169.335938 C 429.613281 164.894531 432.164062 160.847656 436.167969 158.933594 C 440.175781 157.019531 444.925781 157.574219 448.378906 160.359375 L 531.882812 227.714844 C 536.457031 231.410156 539.121094 236.972656 539.121094 242.855469 C 539.121094 248.738281 536.457031 254.300781 531.882812 257.996094 Z M 531.882812 257.996094 " clip-rule="nonzero"/></clipPath><clipPath id="29d48b5274"><path d="M 72 15.882812 L 451.632812 15.882812 L 451.632812 473.328125 L 72 473.328125 Z M 72 15.882812 " clip-rule="nonzero"/></clipPath></defs><g clip-path="url(#c94fd30859)"><g clip-path="url(#099c435359)"><g clip-path="url(#3f8f477b49)">
<path fill="#2b7cceff" d="M 429.394531 145.222656 L 550.648438 145.222656 L 550.648438 340.363281 L 429.394531 340.363281 Z M 429.394531 145.222656 " fill-opacity="1" fill-rule="nonzero"/></g></g></g><g clip-path="url(#29d48b5274)">
<path fill="#2b7cceff" d="M 89.710938 406.203125 C 104.726562 431.941406 127.601562 451.242188 156.914062 462.679688 C 175.140625 469.828125 194.441406 473.402344 214.816406 473.402344 C 223.039062 473.402344 231.617188 472.6875 240.195312 471.617188 C 273.082031 467.328125 302.75 454.457031 328.839844 433.371094 C 329.199219 433.011719 329.910156 432.652344 330.269531 432.296875 C 330.269531 432.296875 346.355469 450.882812 352.433594 458.390625 C 354.933594 461.609375 358.152344 463.039062 362.082031 463.039062 C 378.882812 463.039062 432.855469 463.039062 432.855469 463.039062 C 442.148438 463.039062 445.722656 458.035156 446.4375 455.890625 C 447.511719 453.746094 448.941406 447.667969 442.863281 440.519531 L 381.027344 369.746094 C 388.175781 356.875 393.539062 342.9375 397.46875 326.496094 C 400.6875 313.628906 402.472656 300.046875 403.902344 282.886719 L 429.996094 282.886719 C 441.792969 282.886719 451.441406 273.234375 451.441406 261.441406 L 451.441406 231.417969 C 451.441406 219.621094 441.792969 209.96875 429.996094 209.96875 L 352.789062 209.96875 C 340.992188 209.96875 331.34375 219.621094 331.34375 231.417969 C 331.34375 240.710938 330.628906 252.503906 330.628906 259.65625 C 330.628906 280.386719 324.910156 306.121094 324.550781 307.195312 L 267.003906 242.496094 C 280.226562 234.277344 295.957031 223.195312 309.179688 208.539062 C 334.917969 180.300781 344.925781 146.34375 338.492188 107.382812 C 333.128906 72.355469 313.46875 46.261719 280.226562 29.820312 C 251.277344 15.523438 219.105469 12.304688 185.503906 20.167969 C 159.414062 26.601562 138.324219 40.542969 122.953125 60.914062 C 111.160156 76.289062 104.367188 94.875 101.867188 115.605469 C 99.722656 137.050781 102.222656 156.355469 109.726562 173.867188 C 115.089844 186.019531 122.597656 197.816406 134.394531 212.113281 C 136.894531 214.976562 139.039062 217.832031 141.542969 220.335938 C 137.609375 223.195312 133.320312 226.414062 129.03125 229.269531 C 109.726562 244.285156 95.433594 260.726562 86.136719 279.3125 C 75.414062 300.046875 70.765625 323.277344 72.554688 348.300781 C 73.984375 369.386719 79.703125 389.046875 89.710938 406.203125 Z M 174.785156 123.46875 C 176.570312 107.742188 183.71875 96.304688 197.660156 89.511719 C 212.671875 82.363281 228.042969 82.363281 242.695312 89.511719 C 258.425781 97.019531 265.574219 113.460938 265.574219 130.617188 C 265.574219 149.5625 257.351562 164.214844 242.695312 174.941406 C 233.761719 181.375 223.753906 186.734375 214.460938 192.8125 C 214.101562 193.171875 212.671875 192.8125 212.316406 192.453125 C 201.949219 181.734375 191.226562 171.367188 183.363281 158.140625 C 176.929688 147.773438 173.355469 136.335938 174.785156 123.46875 Z M 167.277344 287.179688 C 175.855469 280.386719 184.792969 274.308594 194.085938 267.875 C 225.539062 303.976562 256.636719 339.363281 287.734375 375.105469 C 283.800781 379.753906 279.511719 383.6875 274.507812 386.902344 C 263.785156 394.050781 251.632812 397.984375 239.121094 400.128906 C 224.109375 402.273438 209.453125 402.273438 194.800781 398.34375 C 178.355469 393.691406 164.417969 384.757812 155.125 369.746094 C 141.542969 347.941406 139.753906 309.339844 167.277344 287.179688 Z M 167.277344 287.179688 " fill-opacity="1" fill-rule="nonzero"/></g>
<g fill="#2b7cceff" fill-opacity="1"><g transform="translate(29.831897, 576.573736)"><g><path d="M 55.140625 -71.265625 L 74.4375 -71.265625 L 74.4375 0 L 55.140625 0 L 55.140625 -8 C 51.191406 -2.851562 45.21875 -0.28125 37.21875 -0.28125 C 27.476562 -0.1875 19.113281 -3.585938 12.125 -10.484375 C 5.144531 -17.367188 1.609375 -25.726562 1.515625 -35.5625 C 1.421875 -45.3125 4.820312 -53.675781 11.71875 -60.65625 C 18.613281 -67.644531 26.976562 -71.179688 36.8125 -71.265625 C 44.894531 -71.265625 51.003906 -68.648438 55.140625 -63.421875 Z M 49.359375 -23.4375 C 52.753906 -26.832031 54.453125 -30.96875 54.453125 -35.84375 C 54.453125 -40.800781 52.707031 -44.9375 49.21875 -48.25 C 45.726562 -51.738281 41.640625 -53.394531 36.953125 -53.21875 C 32.078125 -53.21875 27.9375 -51.515625 24.53125 -48.109375 C 21.132812 -44.710938 19.4375 -40.578125 19.4375 -35.703125 C 19.4375 -30.921875 21.179688 -26.785156 24.671875 -23.296875 C 28.078125 -19.898438 32.210938 -18.203125 37.078125 -18.203125 C 42.046875 -18.378906 46.140625 -20.125 49.359375 -23.4375 Z M 49.359375 -23.4375 "/></g></g></g>
<g fill="#2b7cceff" fill-opacity="1"><g transform="translate(108.413875, 576.573736)"><g><path d="M 39.421875 -70.71875 C 49.535156 -71.550781 57.898438 -68.929688 64.515625 -62.859375 C 71.597656 -56.335938 75.140625 -47.195312 75.140625 -35.4375 L 75.140625 0 L 57.21875 0 L 57.21875 -35.015625 L 57.078125 -35.015625 L 57.078125 -35.296875 C 57.078125 -40.160156 55.375 -44.296875 51.96875 -47.703125 C 48.570312 -51.097656 44.4375 -52.796875 39.5625 -52.796875 C 34.601562 -52.617188 30.46875 -50.875 27.15625 -47.5625 C 23.664062 -44.070312 22.015625 -39.9375 22.203125 -35.15625 L 22.203125 -35.015625 L 22.0625 -35.015625 L 22.0625 0 L 2.75 0 L 2.75 -71.265625 L 22.0625 -71.265625 L 22.0625 -62.03125 C 26.375 -67.175781 32.160156 -70.070312 39.421875 -70.71875 Z M 39.421875 -70.71875 "/></g></g></g>
<g fill="#2b7cceff" fill-opacity="1"><g transform="translate(186.306537, 576.573736)"><g><path d="M 59.6875 0 L 59.6875 -8.140625 C 53.070312 -2.710938 45.582031 0 37.21875 0 C 27.476562 0.09375 19.113281 -3.304688 12.125 -10.203125 C 5.144531 -17.097656 1.609375 -25.460938 1.515625 -35.296875 C 1.421875 -45.035156 4.820312 -53.394531 11.71875 -60.375 C 18.613281 -67.363281 26.976562 -70.90625 36.8125 -71 C 45.351562 -71 52.9375 -68.285156 59.5625 -62.859375 L 59.5625 -96.21875 L 78.859375 -96.21875 L 79 0 Z M 49.484375 -23.15625 C 52.890625 -26.5625 54.59375 -30.695312 54.59375 -35.5625 C 54.40625 -40.53125 52.660156 -44.664062 49.359375 -47.96875 C 45.859375 -51.28125 41.722656 -52.9375 36.953125 -52.9375 C 32.078125 -52.9375 27.9375 -51.238281 24.53125 -47.84375 C 21.132812 -44.070312 19.484375 -39.9375 19.578125 -35.4375 C 19.578125 -30.5625 21.273438 -26.421875 24.671875 -23.015625 C 28.078125 -19.617188 32.210938 -17.921875 37.078125 -17.921875 C 42.046875 -18.109375 46.179688 -19.851562 49.484375 -23.15625 Z M 49.484375 -23.15625 "/></g></g></g>
<g fill="#2b7cceff" fill-opacity="1"><g transform="translate(269.437997, 576.573736)"><g><path d="M 72.234375 -68.109375 L 48.9375 -68.109375 L 48.9375 0 L 27.4375 0 L 27.4375 -68.109375 L 4.140625 -68.109375 L 4.140625 -89.609375 L 72.234375 -89.609375 Z M 72.234375 -68.109375 "/></g></g></g>
<g fill="#2b7cceff" fill-opacity="1"><g transform="translate(344.57338, 576.573736)"><g><path d="M 76.515625 0 L 58.59375 0 L 58.59375 -35.015625 L 58.453125 -35.015625 L 58.453125 -35.4375 C 58.453125 -40.207031 56.753906 -44.296875 53.359375 -47.703125 C 49.953125 -51.097656 45.8125 -52.796875 40.9375 -52.796875 C 36.164062 -52.796875 32.03125 -51.050781 28.53125 -47.5625 C 25.039062 -44.070312 23.390625 -39.9375 23.578125 -35.15625 L 23.578125 -35.015625 L 23.4375 -35.015625 L 23.4375 0 L 4.140625 0 L 4.140625 -89.609375 L 23.4375 -89.609375 L 23.4375 -62.03125 C 27.757812 -67.175781 33.550781 -70.070312 40.8125 -70.71875 C 50.914062 -71.550781 59.273438 -68.929688 65.890625 -62.859375 C 72.972656 -56.335938 76.515625 -47.195312 76.515625 -35.4375 Z M 76.515625 0 "/></g></g></g>
<g fill="#2b7cceff" fill-opacity="1"><g transform="translate(425.22332, 576.573736)"><g><path d="M 72.515625 -32.390625 C 72.609375 -30.460938 72.609375 -29.316406 72.515625 -28.953125 L 20.671875 -29.09375 C 21.410156 -26.976562 22.742188 -24.953125 24.671875 -23.015625 C 28.253906 -19.617188 32.390625 -17.921875 37.078125 -17.921875 C 42.046875 -18.109375 46.179688 -19.851562 49.484375 -23.15625 L 50.046875 -23.71875 L 67.96875 -18.0625 C 64.007812 -11.90625 59.875 -7.492188 55.5625 -4.828125 C 50.6875 -1.703125 44.570312 -0.09375 37.21875 0 C 27.476562 0.09375 19.113281 -3.304688 12.125 -10.203125 C 5.144531 -17.097656 1.609375 -25.460938 1.515625 -35.296875 C 1.421875 -45.035156 4.820312 -53.394531 11.71875 -60.375 C 18.613281 -67.363281 26.976562 -70.90625 36.8125 -71 C 46.550781 -71.09375 54.914062 -67.691406 61.90625 -60.796875 C 68.882812 -53.898438 72.421875 -45.535156 72.515625 -35.703125 Z M 36.953125 -52.9375 C 32.078125 -52.9375 27.9375 -51.238281 24.53125 -47.84375 C 22.789062 -45.90625 21.550781 -43.972656 20.8125 -42.046875 L 53.21875 -42.046875 C 52.476562 -43.972656 51.191406 -45.945312 49.359375 -47.96875 C 45.859375 -51.28125 41.722656 -52.9375 36.953125 -52.9375 Z M 36.953125 -52.9375 "/></g></g></g>
<g fill="#2b7cceff" fill-opacity="1"><g transform="translate(499.255783, 576.573736)"><g><path d="M 39.421875 -70.71875 C 49.535156 -71.550781 57.898438 -68.929688 64.515625 -62.859375 C 71.597656 -56.335938 75.140625 -47.195312 75.140625 -35.4375 L 75.140625 0 L 57.21875 0 L 57.21875 -35.015625 L 57.078125 -35.015625 L 57.078125 -35.296875 C 57.078125 -40.160156 55.375 -44.296875 51.96875 -47.703125 C 48.570312 -51.097656 44.4375 -52.796875 39.5625 -52.796875 C 34.601562 -52.617188 30.46875 -50.875 27.15625 -47.5625 C 23.664062 -44.070312 22.015625 -39.9375 22.203125 -35.15625 L 22.203125 -35.015625 L 22.0625 -35.015625 L 22.0625 0 L 2.75 0 L 2.75 -71.265625 L 22.0625 -71.265625 L 22.0625 -62.03125 C 26.375 -67.175781 32.160156 -70.070312 39.421875 -70.71875 Z M 39.421875 -70.71875 "/></g></g></g></svg>