<svg xmlns="http://www.w3.org/2000/svg" viewBox="0 0 340 340"><g data-name="Layer 20"><path d="M170.545 91.868 193.4 68.2a57.5 57.5 0 0 1 15.322-1.534c17.3.481 25.268 12.774 28.939 24.117 0 0 34.906-13.925 55.288 18.147 7.644 12.027 7.616 25.866 4.595 38.468l-19.289 32.093-72.048 18.517z" style="fill:#9fcbf7"/><path d="M279.159 185.961s13.313-17.518 18.363-38.484C194.838 169.77 192.645 86.679 193.4 68.21c-20.64 5.055-28.143 20.635-28.143 20.635l-8.393 30.574 53.954 92.32z" style="fill:#6f9ad8"/><path d="M177.822 61c-.905 15.956-4.1 64.31-12.153 118.713l-25.019 114.45s-50.467-2.61-77.687-17.526c0 0 4.1-30.576 2.983-45.118l-21.193-27.61c-6.074-10-11.807-22.062-14.6-35.057 0 0-5.22-32.418-19.763-48.452l9.894-9.633a8.359 8.359 0 0 1 9.985-1.252c7.416 4.234 21.266 13.606 36.8 31.394 0 0 10.03-35.28 16.4-109.575a5.819 5.819 0 0 1 5.792-5.321h19.009l.407-6.053a5.807 5.807 0 0 1 5.506-5.418c3.893-.192 9.47-.348 14.877-.078a5.559 5.559 0 0 1 5.309 5.418c.087 3.968.129 9.574-.157 14.074l17.681.381a5.543 5.543 0 0 1 5.427 5.649c-.076 3.9-.206 9.3-.408 14.3l15.675.859A5.545 5.545 0 0 1 177.822 61z" style="fill:#ffcac0"/><path d="M244.944 31.951c-2.733-10.875-16.441-15.134-24.7-7.552a13.937 13.937 0 0 0-3.595 5.361s-1.212 13 14.487 15.227c8.858 1.256 14.486-7.911 14.486-7.911a23.808 23.808 0 0 0-.678-5.125z" style="fill:#9fcbf7"/><path d="m154.817 190.076-30.367-21.22s-16.454 6.583-13.568 34c0 0-23.873 13.287-17.894 45.859 3.285 17.9 11.283 28.176 21.641 37.094A32.967 32.967 0 0 0 133.2 293.6c4.644.417 7.45.563 7.45.563 9.055-28.031 16.013-59.993 21.328-91.216z" style="fill:#e5837c"/><path d="M40.745 50.3s-14.513-.853-13.659 15.367q.012.219.027.435s6.279 11.058 17.331 5.316 5.328-17.684 5.328-17.684a14.568 14.568 0 0 0-9.027-3.434z" style="fill:#9fcbf7"/><path d="m149.318 129.7-6.617-2.08c7.049-22.419 10.716-73.067 10.752-73.576l6.926.436c-.15 2.107-3.768 52.02-11.061 75.22zM137.956 125.26l-10.493-2.174c7.007-29.54 10.093-86.548 10.225-89.055l-6.939-.257c-.033.609-3.186 59.024-10.08 87.9l-17.344-3.595c6.3-34.942 8.406-91.539 8.427-92.114l-7.037.044c-.02.569-2 56.22-8.184 90.662l-5.173-1.071a3.468 3.468 0 0 0-1.407 6.792l46.6 9.657a3.468 3.468 0 0 0 1.407-6.792z" style="fill:#e5837c"/><path d="M292.835 52.508a3.468 3.468 0 0 1-2.924-1.6l-3.481-5.44a3.468 3.468 0 0 1 5.842-3.739l3.482 5.44a3.47 3.47 0 0 1-2.919 5.338zM306.615 74.04a3.465 3.465 0 0 1-2.925-1.6L300.21 67a3.468 3.468 0 0 1 5.842-3.738l3.481 5.44a3.468 3.468 0 0 1-2.918 5.337zM306.031 55.405a3.468 3.468 0 0 1-1.872-6.389l5.439-3.481a3.468 3.468 0 1 1 3.739 5.841l-5.437 3.481a3.448 3.448 0 0 1-1.869.548zM284.5 69.185a3.468 3.468 0 0 1-1.872-6.389l5.44-3.482a3.468 3.468 0 1 1 3.739 5.842l-5.44 3.481a3.448 3.448 0 0 1-1.867.548zM162.9 128.231s-24.611-16.78-40.644 4.474c-9.644 12.784-4.99 26.781 2.2 36.151 0 0-13.759 10.832-2.572 35.07 0 0-13.2 5.194-16.523 22.345 5.42 15.859 22.343 27.815 43.475 43.771 0 0 40.845-6.515 47.556-43.43z" style="fill:#9fcbf7"/><path d="M105.369 226.274a50.667 50.667 0 0 0 .475 19.787c6.712 33.187 44.746 27.966 44.746 27.966s47.728-5.22 54.44-42.135l-16.893-41.56-29.781-44.032s29.437 91.559-52.987 79.974z" style="fill:#6f9ad8"/><path d="m151.033 138.8 46.9 96.183s-18.958-14.5-49.512-2.481a8.894 8.894 0 0 0-5.672 8.263v9.268s19.118.418 31.925 14.214c0 0 13.945 19.562 45.793 21.373a19.991 19.991 0 0 1 16.254 10.191l16.813 29.889s53.512-15.886 76.087-43.9l-15.53-30.426a92.634 92.634 0 0 1-7.18-18.936c-5.307-20.538-20.415-71.37-48.591-111.46a10.169 10.169 0 0 0-8.32-4.305h-12.88l-2.771-4.969a8.541 8.541 0 0 0-7.572-4.382 151.345 151.345 0 0 0-17.817 1.047l-1.08-2.248a7.445 7.445 0 0 0-6.477-4.228 63.654 63.654 0 0 0-11.877.7 4.842 4.842 0 0 0-3.828 6.235c3.869 12.271 14.342 45.487 25.238 80.008a.436.436 0 0 1-.788.36c-6.175-10.251-26.049-42.937-39.647-61.758a5.884 5.884 0 0 0-7.66-1.664l-9.407 5.307a5.893 5.893 0 0 0-2.401 7.719z" style="fill:#ffcac0"/><path d="M234.639 184.111c-13.091-34.329-29.075-74.914-29.232-75.315a44.087 44.087 0 0 1 7.2-.859c.159.4 15.419 39.361 28.512 73.7a.851.851 0 0 1-.5 1.1l-4.886 1.862a.849.849 0 0 1-1.094-.488zM256.089 174.351c-7.214-20.856-22.572-57.394-22.723-57.751l7.478.073c.152.359 14.541 34.414 21.806 55.426a.848.848 0 0 1-.534 1.079l-4.948 1.694a.846.846 0 0 1-1.079-.521zM61.594 185.484l-14.628 21.948a156.409 156.409 0 0 0 18.98 24.087c18.667-21.28-4.352-46.035-4.352-46.035z" style="fill:#e5837c"/><path d="M61.594 185.484c-5.046-7.631-14.92-10.766-23.2-6.867-5 2.356-9.466 7.245-9.178 17.233a36.382 36.382 0 0 0 .848 7.016s7.316 12.576 22.817 7.346 11.537-19.577 11.537-19.577a37.648 37.648 0 0 0-2.824-5.151z" style="fill:#9fcbf7"/><path d="M35.3 78.361a13.546 13.546 0 0 0 12.216-2.174c3.766-2.756 8.219-7.616 6.672-14.58a14.23 14.23 0 0 0-4.422-7.875c-.166 5.8-2.042 12.318-8.991 14.881-6.767 2.5-11.05.321-13.656-2.517.548 7.786 4.413 11.004 8.181 12.265zM234.37 52.107c5.145-1.178 11.14-4.534 11.261-13.763.006-.437-.008-.852-.021-1.268-2.965 3.171-7.541 5.177-14.607 3.942-10.863-1.9-13.9-6.919-14.343-11.253a17.96 17.96 0 0 0-.908 3.243 16.329 16.329 0 0 0 4.809 15.213 14.967 14.967 0 0 0 13.809 3.886zM64.421 190.635c-2.911 5.922-8.735 13.693-19.621 15.265-7.94 1.147-12.313-.657-14.723-3.036a22.368 22.368 0 0 0 6.243 11.575 18.385 18.385 0 0 0 15.3 4.692c5.021-.721 10.879-3.141 14.086-8.589a15.963 15.963 0 0 0 1.442-12.227 49.9 49.9 0 0 0-2.727-7.68z" style="fill:#6f9ad8"/><circle cx="273.892" cy="113.635" r="9.737" style="fill:#fff"/><circle cx="117.689" cy="146.296" r="13.077" style="fill:#fff"/><circle cx="41.809" cy="191.519" r="6.035" style="fill:#fff"/><path d="M135.139 173.827a4.878 4.878 0 0 1 3.5 7.193 42.084 42.084 0 0 0-5.378 17.293 1.8 1.8 0 0 1-3.476.549 31.5 31.5 0 0 1-.587-21.378 5.374 5.374 0 0 1 5.941-3.657z" style="fill:#fff"/><path d="M286.317 100.305a3.467 3.467 0 0 0-.4 4.888q.369.433.733.886a3.468 3.468 0 0 0 5.4-4.357q-.42-.519-.844-1.019a3.47 3.47 0 0 0-4.889-.398zM70.49 126.27a3.465 3.465 0 0 0 4.081-2.719c3.558-17.746 8.588-48.1 12.348-91.932a2.361 2.361 0 0 1 2.336-2.149h19.011a3.468 3.468 0 0 0 3.46-3.236l.407-6.053a2.343 2.343 0 0 1 2.218-2.187c3.691-.182 9.209-.343 14.532-.079a2.084 2.084 0 0 1 2.015 2.032c.085 3.864.128 9.392-.151 13.778a3.469 3.469 0 0 0 3.387 3.687l17.68.38a2.082 2.082 0 0 1 2.035 2.115c-.072 3.705-.2 9.181-.406 14.227a3.468 3.468 0 0 0 3.275 3.6l15.676.859a2.079 2.079 0 0 1 1.962 2.193c-.464 8.184-1.552 25.205-3.614 47.245a3.468 3.468 0 1 0 6.905.646 1435.306 1435.306 0 0 0 2.563-30.962c7.873-5.343 17.441-7.9 28.409-7.6 12.527.348 21.187 7.655 25.737 21.718a3.473 3.473 0 0 0 4.578 2.156c.185-.075 18.871-7.26 35.754 1.945a3.468 3.468 0 1 0 3.321-6.09c-15.336-8.362-31.363-5.363-38.222-3.421-5.805-14.821-16.456-22.838-30.974-23.241-10.5-.3-19.893 1.759-28.026 6.094.21-3.244.373-5.973.494-8.1a9.014 9.014 0 0 0-8.508-9.511L160.5 51c.135-4.041.227-8.042.284-10.957a9.027 9.027 0 0 0-8.82-9.183l-14.133-.3c.109-3.763.068-7.753 0-10.76a9.069 9.069 0 0 0-8.6-8.806c-5.608-.28-11.373-.112-15.219.079a9.28 9.28 0 0 0-8.8 8.649l-.188 2.818H89.255a9.342 9.342 0 0 0-9.247 8.492c-3.733 43.51-8.715 73.59-12.237 91.162a3.467 3.467 0 0 0 2.719 4.076zM30.141 172.308a3.41 3.41 0 0 0 .557-.045 3.468 3.468 0 0 0 2.871-3.974c-.209-1.3-5.042-30.517-18.459-47.663l7.59-7.386a4.843 4.843 0 0 1 5.847-.725 147.411 147.411 0 0 1 33.692 27.991 12.835 12.835 0 0 0 5.433 3.7 54.667 54.667 0 0 1 14.1 7.238c10.063 7.546 14.907 18.65 14.4 33a3.468 3.468 0 0 0 3.343 3.589h.125a3.469 3.469 0 0 0 3.464-3.345c1.272-35.845-27.794-45.283-34.172-46.917-15.763-17.839-29.872-27.247-36.94-31.284a11.887 11.887 0 0 0-14.124 1.779L7.963 117.9a3.469 3.469 0 0 0-.15 4.815c13.671 15.072 18.857 46.359 18.909 46.674a3.467 3.467 0 0 0 3.419 2.919zM140.932 125.473a3.468 3.468 0 1 0-.559-6.913c-8.346.675-15.376 4.728-20.895 12.045-8.387 11.118-8.157 25.115.465 37.916-3.933 4.762-10.483 16.672-1.267 36.735a22.9 22.9 0 0 0 12.482 11.774 3.468 3.468 0 1 0 2.371-6.518 16.067 16.067 0 0 1-8.459-7.943c-.008-.019-.02-.033-.028-.051s-.011-.039-.019-.057c-9.8-21.234 1.125-30.527 1.569-30.892.023-.017.039-.04.061-.058s.051-.033.075-.054c.051-.044 5.226-4.491 11-5.289a3.468 3.468 0 1 0-.95-6.87 29.013 29.013 0 0 0-11.523 4.649c-4.044-6.354-8.769-17.853-.236-29.165 4.272-5.667 9.628-8.8 15.913-9.309z" style="fill:#3c3c4f"/><path d="M310.264 231.566a431.774 431.774 0 0 0-19.48-57.686c7.279-13.5 14.868-33.109 11.133-51.695a3.469 3.469 0 0 0-6.8 1.367c2.913 14.492-2.106 30.066-7.913 42.1a284.343 284.343 0 0 0-26.05-46.669 13.649 13.649 0 0 0-11.159-5.786h-10.843L237.374 110a12 12 0 0 0-10.488-6.162h-.158c-4.735.062-10.956.247-15.73.756a10.871 10.871 0 0 0-9.5-6.184 67.467 67.467 0 0 0-12.533.748 8.315 8.315 0 0 0-6.579 10.708c2.972 9.428 9.84 31.208 17.8 56.441-8.384-13.46-18.775-29.691-26.881-40.911a9.34 9.34 0 0 0-12.175-2.654l-9.407 5.307a9.373 9.373 0 0 0-3.814 12.256l42.416 86.995c-9.019-3.231-23.937-5.6-43.178 1.969a12.3 12.3 0 0 0-7.871 11.49v9.269a3.474 3.474 0 0 0 3.386 3.467c.169 0 16.364.557 27.931 11.563a85.852 85.852 0 0 1-20.479 5.527c-1.424.194-34.878 4.436-40.874-25.218-2.595-12.826-.923-23.211 4.969-30.869a3.467 3.467 0 1 0-5.5-4.229c-4.931 6.407-10.021 17.936-6.272 36.473 5.131 25.374 27.014 30.258 39.569 30.92a448.41 448.41 0 0 1-4.664 15.428 3.468 3.468 0 1 0 6.6 2.133 467.58 467.58 0 0 0 5.276-17.6 32.16 32.16 0 0 0 1.741-.158 91.329 91.329 0 0 0 24.605-6.991c6.255 6.223 20.587 17.228 44.7 18.6a16.442 16.442 0 0 1 13.428 8.43l16.813 29.891a3.468 3.468 0 0 0 6.046-3.4L239.739 294.1a23.346 23.346 0 0 0-19.08-11.953c-29.652-1.686-43.041-19.75-43.166-19.923a3.619 3.619 0 0 0-.282-.347c-10.457-11.264-24.586-14.251-31-15.04v-6.083a5.4 5.4 0 0 1 3.474-5.035c25.607-10.07 42.167-.632 45.524 1.584l3.085 6.3a3.468 3.468 0 0 0 6.229-3.05l-4.045-8.262-46.333-95.021a2.43 2.43 0 0 1 .989-3.175l9.407-5.308a2.414 2.414 0 0 1 3.145.675c16 22.147 41.129 64.25 41.38 64.673a3.469 3.469 0 0 0 6.287-2.82 278723.466 278723.466 0 0 1-26.349-83.529 1.368 1.368 0 0 1 .142-1.143 1.35 1.35 0 0 1 .943-.635 60.458 60.458 0 0 1 11.207-.66 3.957 3.957 0 0 1 3.454 2.263l1.08 2.248a3.471 3.471 0 0 0 3.661 1.924 141.464 141.464 0 0 1 17.328-1 5.13 5.13 0 0 1 4.5 2.6l2.771 4.968a3.466 3.466 0 0 0 3.028 1.779h12.879a6.7 6.7 0 0 1 5.485 2.839C283.4 162.688 298.4 213.36 303.549 233.3A96.306 96.306 0 0 0 311 252.946l15.529 30.426a3.468 3.468 0 0 0 6.178-3.153l-15.53-30.427a89.36 89.36 0 0 1-6.913-18.226zM235.548 17.886a18.157 18.157 0 0 0-17.655 3.947 18.363 18.363 0 0 0-5.557 10.543 19.741 19.741 0 0 0 5.788 18.305 18.537 18.537 0 0 0 12.951 5.253 18.17 18.17 0 0 0 4.065-.458c8.88-2.034 13.836-8.106 13.956-17.1a28.508 28.508 0 0 0-.796-7.276 18.428 18.428 0 0 0-12.752-13.214zm-1.956 30.829a11.553 11.553 0 0 1-10.6-2.978 12.9 12.9 0 0 1-3.83-12.12 11.6 11.6 0 0 1 3.424-6.674 11.091 11.091 0 0 1 7.545-2.921 11.956 11.956 0 0 1 3.428.509 11.547 11.547 0 0 1 8.02 8.253 21.561 21.561 0 0 1 .583 5.5c-.078 5.716-2.88 9.128-8.57 10.431zM40.9 46.814h-.121c-1.15-.035-7.775-.022-12.515 4.69-3.406 3.385-4.969 8.2-4.647 14.328C24.191 76.707 30.5 80.4 34.2 81.639a15.771 15.771 0 0 0 4.994.8 17.632 17.632 0 0 0 10.367-3.466c6.677-4.886 9.521-11.325 8.01-18.131A17.242 17.242 0 0 0 40.9 46.814zm4.566 26.562a10.092 10.092 0 0 1-9.066 1.683c-3.66-1.221-5.574-4.358-5.849-9.591-.213-4.042.653-7.073 2.573-9.007 2.549-2.568 6.42-2.716 7.272-2.716h.379a.1.1 0 0 0 .024 0c.888 0 8.155.26 10.007 8.6.899 4.07-.896 7.78-5.338 11.031zM68.695 212.29a19.538 19.538 0 0 0 1.8-14.883 48.26 48.26 0 0 0-6.014-13.848c-6.06-9.162-17.909-12.641-27.568-8.09-5.291 2.493-11.523 8.068-11.167 20.469.261 9.029 3.012 16.1 8.179 21a21.464 21.464 0 0 0 14.878 5.849 23.317 23.317 0 0 0 3.308-.238c.424-.061.842-.133 1.257-.212 4.187 5.31 7.614 9.026 9.193 10.673.772 14.464-3 42.858-3.042 43.152a3.468 3.468 0 1 0 6.874.922c.169-1.263 4.137-31.108 3-45.846a3.472 3.472 0 0 0-1.018-2.2c-.038-.039-3.4-3.386-8.03-9.075a20.338 20.338 0 0 0 8.35-7.673zm-5.976-3.519c-2.939 4.99-8.524 6.475-11.592 6.916a15.023 15.023 0 0 1-12.422-3.774c-3.79-3.6-5.817-9.043-6.022-16.174-.2-7.043 2.149-11.621 7.19-14a14.078 14.078 0 0 1 6.021-1.338 15.461 15.461 0 0 1 12.8 6.98A41.27 41.27 0 0 1 63.8 199.2a12.576 12.576 0 0 1-1.081 9.571z" style="fill:#3c3c4f"/></g></svg>