<svg xmlns="http://www.w3.org/2000/svg" xmlns:xlink="http://www.w3.org/1999/xlink" zoomAndPan="magnify" preserveAspectRatio="xMidYMid meet" version="1.0" viewBox="82.87 349.94 643.17 118.83"><defs><g></g><clipPath id="43ccbdcdfa"><rect x="0" width="651" y="0" height="224"></rect></clipPath></defs><g transform="matrix(1, 0, 0, 1, 80, 293)"><g clip-path="url(#43ccbdcdfa)"><g fill="#38b6ff" fill-opacity="1"><g transform="translate(0.999999, 175.766281)"><g><path d="M 68.09375 -88.015625 L 91.9375 -88.015625 L 91.9375 0 L 68.09375 0 L 68.09375 -9.875 C 63.21875 -3.519531 55.84375 -0.34375 45.96875 -0.34375 C 33.9375 -0.226562 23.609375 -4.425781 14.984375 -12.9375 C 6.359375 -21.445312 1.988281 -31.773438 1.875 -43.921875 C 1.757812 -55.953125 5.957031 -66.28125 14.46875 -74.90625 C 22.976562 -83.53125 33.304688 -87.898438 45.453125 -88.015625 C 55.441406 -88.015625 62.988281 -84.78125 68.09375 -78.3125 Z M 60.953125 -28.9375 C 65.148438 -33.132812 67.25 -38.242188 67.25 -44.265625 C 67.25 -50.390625 65.09375 -55.5 60.78125 -59.59375 C 56.46875 -63.90625 51.414062 -65.945312 45.625 -65.71875 C 39.613281 -65.71875 34.503906 -63.617188 30.296875 -59.421875 C 26.097656 -55.222656 24 -50.113281 24 -44.09375 C 24 -38.1875 26.15625 -33.078125 30.46875 -28.765625 C 34.675781 -24.566406 39.785156 -22.46875 45.796875 -22.46875 C 51.921875 -22.695312 56.972656 -24.851562 60.953125 -28.9375 Z M 60.953125 -28.9375 "></path></g></g></g><g fill="#38b6ff" fill-opacity="1"><g transform="translate(96.334604, 175.766281)"><g><path d="M 48.6875 -87.34375 C 61.175781 -88.363281 71.503906 -85.128906 79.671875 -77.640625 C 88.410156 -69.578125 92.78125 -58.28125 92.78125 -43.75 L 92.78125 0 L 70.65625 0 L 70.65625 -43.25 L 70.484375 -43.25 L 70.484375 -43.578125 C 70.484375 -49.597656 68.382812 -54.707031 64.1875 -58.90625 C 59.988281 -63.101562 54.878906 -65.203125 48.859375 -65.203125 C 42.734375 -64.972656 37.628906 -62.816406 33.546875 -58.734375 C 29.222656 -54.421875 27.175781 -49.3125 27.40625 -43.40625 L 27.40625 -43.25 L 27.234375 -43.25 L 27.234375 0 L 3.40625 0 L 3.40625 -88.015625 L 27.234375 -88.015625 L 27.234375 -76.609375 C 32.566406 -82.960938 39.71875 -86.539062 48.6875 -87.34375 Z M 48.6875 -87.34375 "></path></g></g></g><g fill="#38b6ff" fill-opacity="1"><g transform="translate(190.818006, 175.766281)"><g><path d="M 73.71875 0 L 73.71875 -10.046875 C 65.539062 -3.347656 56.289062 0 45.96875 0 C 33.9375 0.113281 23.609375 -4.082031 14.984375 -12.59375 C 6.359375 -21.113281 1.988281 -31.441406 1.875 -43.578125 C 1.757812 -55.609375 5.957031 -65.9375 14.46875 -74.5625 C 22.976562 -83.195312 33.304688 -87.566406 45.453125 -87.671875 C 56.015625 -87.671875 65.378906 -84.328125 73.546875 -77.640625 L 73.546875 -118.828125 L 97.390625 -118.828125 L 97.546875 0 Z M 61.125 -28.609375 C 65.320312 -32.804688 67.421875 -37.910156 67.421875 -43.921875 C 67.191406 -50.054688 65.035156 -55.164062 60.953125 -59.25 C 56.640625 -63.332031 51.53125 -65.375 45.625 -65.375 C 39.613281 -65.375 34.503906 -63.273438 30.296875 -59.078125 C 26.097656 -54.421875 24.054688 -49.3125 24.171875 -43.75 C 24.171875 -37.738281 26.269531 -32.632812 30.46875 -28.4375 C 34.675781 -24.226562 39.785156 -22.125 45.796875 -22.125 C 51.921875 -22.351562 57.03125 -24.515625 61.125 -28.609375 Z M 61.125 -28.609375 "></path></g></g></g><g fill="#38b6ff" fill-opacity="1"><g transform="translate(291.770539, 175.766281)"><g><path d="M 77.46875 -110.65625 L 104.015625 -110.65625 L 104.015625 0 L 30.640625 -53.96875 L 30.640625 0 L 4.09375 0 L 4.09375 -110.65625 L 77.46875 -54.140625 Z M 77.46875 -110.65625 "></path></g></g></g><g fill="#38b6ff" fill-opacity="1"><g transform="translate(398.170808, 175.766281)"><g><path d="M 89.546875 -40.015625 C 89.660156 -37.628906 89.660156 -36.207031 89.546875 -35.75 L 25.53125 -35.921875 C 26.445312 -33.304688 28.09375 -30.8125 30.46875 -28.4375 C 34.894531 -24.226562 40.003906 -22.125 45.796875 -22.125 C 51.921875 -22.351562 57.03125 -24.515625 61.125 -28.609375 L 61.796875 -29.28125 L 83.9375 -22.296875 C 79.050781 -14.691406 73.941406 -9.242188 68.609375 -5.953125 C 62.597656 -2.097656 55.050781 -0.113281 45.96875 0 C 33.9375 0.113281 23.609375 -4.082031 14.984375 -12.59375 C 6.359375 -21.113281 1.988281 -31.441406 1.875 -43.578125 C 1.757812 -55.609375 5.957031 -65.9375 14.46875 -74.5625 C 22.976562 -83.195312 33.304688 -87.566406 45.453125 -87.671875 C 57.484375 -87.785156 67.8125 -83.585938 76.4375 -75.078125 C 85.0625 -66.566406 89.429688 -56.238281 89.546875 -44.09375 Z M 45.625 -65.375 C 39.613281 -65.375 34.503906 -63.273438 30.296875 -59.078125 C 28.140625 -56.691406 26.609375 -54.304688 25.703125 -51.921875 L 65.71875 -51.921875 C 64.8125 -54.304688 63.222656 -56.75 60.953125 -59.25 C 56.640625 -63.332031 51.53125 -65.375 45.625 -65.375 Z M 45.625 -65.375 "></path></g></g></g><g fill="#38b6ff" fill-opacity="1"><g transform="translate(480.90716, 175.766281)"><g><path d="M 76.609375 0 L 49.203125 -27.234375 L 21.96875 0 L 5.109375 -16.859375 L 32.34375 -44.09375 L 5.109375 -71.5 L 21.96875 -88.359375 L 49.203125 -60.953125 L 76.609375 -88.359375 L 93.46875 -71.5 L 66.0625 -44.09375 L 93.46875 -16.859375 Z M 76.609375 0 "></path></g></g></g><g fill="#38b6ff" fill-opacity="1"><g transform="translate(577.773875, 175.766281)"><g><path d="M 68.265625 -87.671875 L 68.265625 -63.84375 L 48.6875 -63.84375 L 48.6875 0 L 24.859375 0 L 24.859375 -63.84375 L 5.109375 -63.84375 L 5.109375 -87.671875 L 24.859375 -87.671875 L 24.859375 -118.328125 L 48.6875 -118.328125 L 48.6875 -87.671875 Z M 68.265625 -87.671875 "></path></g></g></g></g></g></svg>