<svg xmlns="http://www.w3.org/2000/svg" xmlns:xlink="http://www.w3.org/1999/xlink" width="1080" zoomAndPan="magnify" viewBox="0 0 810 809.999993" height="1080" preserveAspectRatio="xMidYMid meet" version="1.0"><defs><g/><clipPath id="cfa1a4698a"><path d="M 557.707031 225.730469 L 690.917969 225.730469 L 690.917969 430 L 557.707031 430 Z M 557.707031 225.730469 " clip-rule="nonzero"/></clipPath><clipPath id="11218c3e09"><path d="M 679.410156 351.320312 L 587.164062 425.734375 C 581.789062 430.070312 574.402344 430.933594 568.171875 427.953125 C 561.941406 424.976562 557.976562 418.683594 557.976562 411.777344 L 557.976562 243.777344 C 557.976562 236.871094 561.941406 230.582031 568.171875 227.601562 C 574.402344 224.621094 581.789062 225.488281 587.164062 229.820312 L 679.410156 304.234375 C 686.53125 309.976562 690.667969 318.632812 690.667969 327.777344 C 690.667969 336.925781 686.53125 345.578125 679.410156 351.320312 Z M 679.410156 351.320312 " clip-rule="nonzero"/></clipPath><clipPath id="ddbf538146"><path d="M 0.761719 0.730469 L 133.71875 0.730469 L 133.71875 205 L 0.761719 205 Z M 0.761719 0.730469 " clip-rule="nonzero"/></clipPath><clipPath id="0153b335cb"><path d="M 122.410156 126.320312 L 30.164062 200.734375 C 24.789062 205.070312 17.402344 205.933594 11.171875 202.953125 C 4.941406 199.976562 0.976562 193.683594 0.976562 186.777344 L 0.976562 18.777344 C 0.976562 11.871094 4.941406 5.582031 11.171875 2.601562 C 17.402344 -0.378906 24.789062 0.488281 30.164062 4.820312 L 122.410156 79.234375 C 129.53125 84.976562 133.667969 93.632812 133.667969 102.777344 C 133.667969 111.925781 129.53125 120.578125 122.410156 126.320312 Z M 122.410156 126.320312 " clip-rule="nonzero"/></clipPath><clipPath id="6614cb0741"><rect x="0" width="134" y="0" height="205"/></clipPath><clipPath id="a34ad34a17"><path d="M 106 45 L 579 45 L 579 614.621094 L 106 614.621094 Z M 106 45 " clip-rule="nonzero"/></clipPath><clipPath id="bb237f5b98"><rect x="0" width="651" y="0" height="224"/></clipPath></defs><g clip-path="url(#cfa1a4698a)"><g clip-path="url(#11218c3e09)"><g transform="matrix(1, 0, 0, 1, 557, 225)"><g clip-path="url(#6614cb0741)"><g clip-path="url(#ddbf538146)"><g clip-path="url(#0153b335cb)"><path fill="#38b6ff" d="M 151.597656 -18.722656 L 151.597656 224.121094 L 0.707031 224.121094 L 0.707031 -18.722656 Z M 151.597656 -18.722656 " fill-opacity="1" fill-rule="nonzero"/></g></g></g></g></g></g><g clip-path="url(#a34ad34a17)"><path fill="#38b6ff" d="M 128.378906 531.0625 C 147.0625 563.089844 175.53125 587.109375 212.007812 601.34375 C 234.691406 610.242188 258.714844 614.691406 284.066406 614.691406 C 294.296875 614.691406 304.972656 613.800781 315.648438 612.464844 C 356.574219 607.128906 393.492188 591.113281 425.964844 564.871094 C 426.410156 564.425781 427.300781 563.980469 427.746094 563.535156 C 427.746094 563.535156 447.761719 586.664062 455.324219 596.007812 C 458.4375 600.011719 462.441406 601.789062 467.335938 601.789062 C 488.242188 601.789062 555.410156 601.789062 555.410156 601.789062 C 566.972656 601.789062 571.421875 595.5625 572.3125 592.894531 C 573.648438 590.222656 575.425781 582.664062 567.863281 573.765625 L 490.910156 485.691406 C 499.804688 469.675781 506.480469 452.328125 511.371094 431.867188 C 515.375 415.855469 517.597656 398.949219 519.378906 377.597656 L 551.851562 377.597656 C 566.53125 377.597656 578.539062 365.589844 578.539062 350.910156 L 578.539062 313.546875 C 578.539062 298.867188 566.53125 286.855469 551.851562 286.855469 L 455.769531 286.855469 C 441.089844 286.855469 429.078125 298.867188 429.078125 313.546875 C 429.078125 325.109375 428.191406 339.789062 428.191406 348.6875 C 428.191406 374.484375 421.074219 406.511719 420.628906 407.847656 L 349.011719 327.335938 C 365.46875 317.105469 385.042969 303.3125 401.5 285.078125 C 433.527344 249.9375 445.984375 207.675781 437.976562 159.191406 C 431.304688 115.597656 406.839844 83.128906 365.46875 62.664062 C 329.441406 44.871094 289.40625 40.871094 247.59375 50.65625 C 215.121094 58.664062 188.875 76.011719 169.75 101.363281 C 155.070312 120.492188 146.617188 143.625 143.503906 169.421875 C 140.835938 196.113281 143.949219 220.132812 153.289062 241.929688 C 159.960938 257.054688 169.304688 271.730469 183.984375 289.523438 C 187.097656 293.082031 189.765625 296.640625 192.878906 299.753906 C 187.988281 303.3125 182.648438 307.316406 177.3125 310.875 C 153.289062 329.558594 135.496094 350.019531 123.933594 373.152344 C 110.585938 398.949219 104.804688 427.863281 107.027344 459 C 108.808594 485.246094 115.925781 509.710938 128.378906 531.0625 Z M 234.246094 179.207031 C 236.472656 159.636719 245.367188 145.402344 262.714844 136.949219 C 281.398438 128.054688 300.527344 128.054688 318.765625 136.949219 C 338.335938 146.292969 347.234375 166.753906 347.234375 188.105469 C 347.234375 211.679688 337 229.917969 318.765625 243.261719 C 307.644531 251.269531 295.1875 257.941406 283.625 265.503906 C 283.179688 265.949219 281.398438 265.503906 280.953125 265.058594 C 268.054688 251.714844 254.710938 238.816406 244.921875 222.355469 C 236.917969 209.457031 232.46875 195.222656 234.246094 179.207031 Z M 224.90625 382.9375 C 235.582031 374.484375 246.703125 366.921875 258.269531 358.917969 C 297.414062 403.84375 336.113281 447.882812 374.8125 492.363281 C 369.917969 498.144531 364.582031 503.039062 358.351562 507.042969 C 345.007812 515.9375 329.882812 520.832031 314.316406 523.5 C 295.632812 526.171875 277.394531 526.171875 259.15625 521.277344 C 238.695312 515.496094 221.347656 504.375 209.78125 485.691406 C 192.878906 458.558594 190.65625 410.515625 224.90625 382.9375 Z M 224.90625 382.9375 " fill-opacity="1" fill-rule="nonzero"/></g><g transform="matrix(1, 0, 0, 1, 80, 574)"><g clip-path="url(#bb237f5b98)"><g fill="#38b6ff" fill-opacity="1"><g transform="translate(0.999999, 176.162311)"><g><path d="M 68.09375 -88.015625 L 91.9375 -88.015625 L 91.9375 0 L 68.09375 0 L 68.09375 -9.875 C 63.21875 -3.519531 55.84375 -0.34375 45.96875 -0.34375 C 33.9375 -0.226562 23.609375 -4.425781 14.984375 -12.9375 C 6.359375 -21.445312 1.988281 -31.773438 1.875 -43.921875 C 1.757812 -55.953125 5.957031 -66.28125 14.46875 -74.90625 C 22.976562 -83.53125 33.304688 -87.898438 45.453125 -88.015625 C 55.441406 -88.015625 62.988281 -84.78125 68.09375 -78.3125 Z M 60.953125 -28.9375 C 65.148438 -33.132812 67.25 -38.242188 67.25 -44.265625 C 67.25 -50.390625 65.09375 -55.5 60.78125 -59.59375 C 56.46875 -63.90625 51.414062 -65.945312 45.625 -65.71875 C 39.613281 -65.71875 34.503906 -63.617188 30.296875 -59.421875 C 26.097656 -55.222656 24 -50.113281 24 -44.09375 C 24 -38.1875 26.15625 -33.078125 30.46875 -28.765625 C 34.675781 -24.566406 39.785156 -22.46875 45.796875 -22.46875 C 51.921875 -22.695312 56.972656 -24.851562 60.953125 -28.9375 Z M 60.953125 -28.9375 "/></g></g></g><g fill="#38b6ff" fill-opacity="1"><g transform="translate(96.334604, 176.162311)"><g><path d="M 48.6875 -87.34375 C 61.175781 -88.363281 71.503906 -85.128906 79.671875 -77.640625 C 88.410156 -69.578125 92.78125 -58.28125 92.78125 -43.75 L 92.78125 0 L 70.65625 0 L 70.65625 -43.25 L 70.484375 -43.25 L 70.484375 -43.578125 C 70.484375 -49.597656 68.382812 -54.707031 64.1875 -58.90625 C 59.988281 -63.101562 54.878906 -65.203125 48.859375 -65.203125 C 42.734375 -64.972656 37.628906 -62.816406 33.546875 -58.734375 C 29.222656 -54.421875 27.175781 -49.3125 27.40625 -43.40625 L 27.40625 -43.25 L 27.234375 -43.25 L 27.234375 0 L 3.40625 0 L 3.40625 -88.015625 L 27.234375 -88.015625 L 27.234375 -76.609375 C 32.566406 -82.960938 39.71875 -86.539062 48.6875 -87.34375 Z M 48.6875 -87.34375 "/></g></g></g><g fill="#38b6ff" fill-opacity="1"><g transform="translate(190.818006, 176.162311)"><g><path d="M 73.71875 0 L 73.71875 -10.046875 C 65.539062 -3.347656 56.289062 0 45.96875 0 C 33.9375 0.113281 23.609375 -4.082031 14.984375 -12.59375 C 6.359375 -21.113281 1.988281 -31.441406 1.875 -43.578125 C 1.757812 -55.609375 5.957031 -65.9375 14.46875 -74.5625 C 22.976562 -83.195312 33.304688 -87.566406 45.453125 -87.671875 C 56.015625 -87.671875 65.378906 -84.328125 73.546875 -77.640625 L 73.546875 -118.828125 L 97.390625 -118.828125 L 97.546875 0 Z M 61.125 -28.609375 C 65.320312 -32.804688 67.421875 -37.910156 67.421875 -43.921875 C 67.191406 -50.054688 65.035156 -55.164062 60.953125 -59.25 C 56.640625 -63.332031 51.53125 -65.375 45.625 -65.375 C 39.613281 -65.375 34.503906 -63.273438 30.296875 -59.078125 C 26.097656 -54.421875 24.054688 -49.3125 24.171875 -43.75 C 24.171875 -37.738281 26.269531 -32.632812 30.46875 -28.4375 C 34.675781 -24.226562 39.785156 -22.125 45.796875 -22.125 C 51.921875 -22.351562 57.03125 -24.515625 61.125 -28.609375 Z M 61.125 -28.609375 "/></g></g></g><g fill="#38b6ff" fill-opacity="1"><g transform="translate(291.770539, 176.162311)"><g><path d="M 77.46875 -110.65625 L 104.015625 -110.65625 L 104.015625 0 L 30.640625 -53.96875 L 30.640625 0 L 4.09375 0 L 4.09375 -110.65625 L 77.46875 -54.140625 Z M 77.46875 -110.65625 "/></g></g></g><g fill="#38b6ff" fill-opacity="1"><g transform="translate(398.170808, 176.162311)"><g><path d="M 89.546875 -40.015625 C 89.660156 -37.628906 89.660156 -36.207031 89.546875 -35.75 L 25.53125 -35.921875 C 26.445312 -33.304688 28.09375 -30.8125 30.46875 -28.4375 C 34.894531 -24.226562 40.003906 -22.125 45.796875 -22.125 C 51.921875 -22.351562 57.03125 -24.515625 61.125 -28.609375 L 61.796875 -29.28125 L 83.9375 -22.296875 C 79.050781 -14.691406 73.941406 -9.242188 68.609375 -5.953125 C 62.597656 -2.097656 55.050781 -0.113281 45.96875 0 C 33.9375 0.113281 23.609375 -4.082031 14.984375 -12.59375 C 6.359375 -21.113281 1.988281 -31.441406 1.875 -43.578125 C 1.757812 -55.609375 5.957031 -65.9375 14.46875 -74.5625 C 22.976562 -83.195312 33.304688 -87.566406 45.453125 -87.671875 C 57.484375 -87.785156 67.8125 -83.585938 76.4375 -75.078125 C 85.0625 -66.566406 89.429688 -56.238281 89.546875 -44.09375 Z M 45.625 -65.375 C 39.613281 -65.375 34.503906 -63.273438 30.296875 -59.078125 C 28.140625 -56.691406 26.609375 -54.304688 25.703125 -51.921875 L 65.71875 -51.921875 C 64.8125 -54.304688 63.222656 -56.75 60.953125 -59.25 C 56.640625 -63.332031 51.53125 -65.375 45.625 -65.375 Z M 45.625 -65.375 "/></g></g></g><g fill="#38b6ff" fill-opacity="1"><g transform="translate(480.90716, 176.162311)"><g><path d="M 76.609375 0 L 49.203125 -27.234375 L 21.96875 0 L 5.109375 -16.859375 L 32.34375 -44.09375 L 5.109375 -71.5 L 21.96875 -88.359375 L 49.203125 -60.953125 L 76.609375 -88.359375 L 93.46875 -71.5 L 66.0625 -44.09375 L 93.46875 -16.859375 Z M 76.609375 0 "/></g></g></g><g fill="#38b6ff" fill-opacity="1"><g transform="translate(577.773875, 176.162311)"><g><path d="M 68.265625 -87.671875 L 68.265625 -63.84375 L 48.6875 -63.84375 L 48.6875 0 L 24.859375 0 L 24.859375 -63.84375 L 5.109375 -63.84375 L 5.109375 -87.671875 L 24.859375 -87.671875 L 24.859375 -118.328125 L 48.6875 -118.328125 L 48.6875 -87.671875 Z M 68.265625 -87.671875 "/></g></g></g></g></g></svg>