<svg xmlns="http://www.w3.org/2000/svg" xmlns:xlink="http://www.w3.org/1999/xlink" zoomAndPan="magnify" preserveAspectRatio="xMidYMid meet" version="1.0" viewBox="9.85 158.06 354.47 62.81"><defs><g/></defs><g fill="#ffffff" fill-opacity="1"><g transform="translate(8.862309, 220.874985)"><g><path d="M 36 -46.53125 L 48.59375 -46.53125 L 48.59375 0 L 36 0 L 36 -5.21875 C 33.414062 -1.863281 29.515625 -0.1875 24.296875 -0.1875 C 17.941406 -0.125 12.484375 -2.34375 7.921875 -6.84375 C 3.359375 -11.34375 1.046875 -16.800781 0.984375 -23.21875 C 0.929688 -29.582031 3.15625 -35.039062 7.65625 -39.59375 C 12.15625 -44.15625 17.613281 -46.46875 24.03125 -46.53125 C 29.3125 -46.53125 33.300781 -44.820312 36 -41.40625 Z M 32.21875 -15.296875 C 34.4375 -17.515625 35.546875 -20.21875 35.546875 -23.40625 C 35.546875 -26.644531 34.40625 -29.34375 32.125 -31.5 C 29.84375 -33.78125 27.175781 -34.859375 24.125 -34.734375 C 20.9375 -34.734375 18.234375 -33.625 16.015625 -31.40625 C 13.796875 -29.1875 12.6875 -26.488281 12.6875 -23.3125 C 12.6875 -20.1875 13.828125 -17.484375 16.109375 -15.203125 C 18.328125 -12.984375 21.023438 -11.875 24.203125 -11.875 C 27.441406 -12 30.113281 -13.140625 32.21875 -15.296875 Z M 32.21875 -15.296875 "/></g></g></g><g fill="#ffffff" fill-opacity="1"><g transform="translate(60.155629, 220.874985)"><g><path d="M 25.734375 -46.171875 C 32.335938 -46.710938 37.800781 -45.003906 42.125 -41.046875 C 46.738281 -36.785156 49.046875 -30.8125 49.046875 -23.125 L 49.046875 0 L 37.34375 0 L 37.34375 -22.859375 L 37.265625 -22.859375 L 37.265625 -23.046875 C 37.265625 -26.222656 36.15625 -28.921875 33.9375 -31.140625 C 31.707031 -33.359375 29.003906 -34.46875 25.828125 -34.46875 C 22.585938 -34.351562 19.890625 -33.210938 17.734375 -31.046875 C 15.453125 -28.765625 14.367188 -26.066406 14.484375 -22.953125 L 14.484375 -22.859375 L 14.40625 -22.859375 L 14.40625 0 L 1.796875 0 L 1.796875 -46.53125 L 14.40625 -46.53125 L 14.40625 -40.5 C 17.21875 -43.863281 20.992188 -45.753906 25.734375 -46.171875 Z M 25.734375 -46.171875 "/></g></g></g><g fill="#ffffff" fill-opacity="1"><g transform="translate(110.999013, 220.874985)"><g><path d="M 38.96875 0 L 38.96875 -5.3125 C 34.644531 -1.769531 29.753906 0 24.296875 0 C 17.941406 0.0625 12.484375 -2.15625 7.921875 -6.65625 C 3.359375 -11.15625 1.046875 -16.617188 0.984375 -23.046875 C 0.929688 -29.398438 3.15625 -34.859375 7.65625 -39.421875 C 12.15625 -43.984375 17.613281 -46.289062 24.03125 -46.34375 C 29.613281 -46.34375 34.5625 -44.578125 38.875 -41.046875 L 38.875 -62.8125 L 51.484375 -62.8125 L 51.5625 0 Z M 32.3125 -15.125 C 34.53125 -17.34375 35.640625 -20.039062 35.640625 -23.21875 C 35.515625 -26.457031 34.375 -29.15625 32.21875 -31.3125 C 29.9375 -33.476562 27.238281 -34.5625 24.125 -34.5625 C 20.9375 -34.5625 18.234375 -33.453125 16.015625 -31.234375 C 13.796875 -28.773438 12.71875 -26.070312 12.78125 -23.125 C 12.78125 -19.945312 13.890625 -17.25 16.109375 -15.03125 C 18.328125 -12.8125 21.023438 -11.703125 24.203125 -11.703125 C 27.441406 -11.816406 30.144531 -12.957031 32.3125 -15.125 Z M 32.3125 -15.125 "/></g></g></g><g fill="#ffffff" fill-opacity="1"><g transform="translate(165.261949, 220.874985)"><g><path d="M 47.15625 -44.453125 L 31.953125 -44.453125 L 31.953125 0 L 17.90625 0 L 17.90625 -44.453125 L 2.703125 -44.453125 L 2.703125 -58.5 L 47.15625 -58.5 Z M 47.15625 -44.453125 "/></g></g></g><g fill="#ffffff" fill-opacity="1"><g transform="translate(214.305578, 220.874985)"><g><path d="M 49.953125 0 L 38.25 0 L 38.25 -22.859375 L 38.15625 -22.859375 L 38.15625 -23.125 C 38.15625 -26.25 37.046875 -28.921875 34.828125 -31.140625 C 32.609375 -33.359375 29.910156 -34.46875 26.734375 -34.46875 C 23.609375 -34.46875 20.90625 -33.328125 18.625 -31.046875 C 16.34375 -28.765625 15.265625 -26.066406 15.390625 -22.953125 L 15.390625 -22.859375 L 15.296875 -22.859375 L 15.296875 0 L 2.703125 0 L 2.703125 -58.5 L 15.296875 -58.5 L 15.296875 -40.5 C 18.117188 -43.863281 21.898438 -45.753906 26.640625 -46.171875 C 33.242188 -46.710938 38.703125 -45.003906 43.015625 -41.046875 C 47.640625 -36.785156 49.953125 -30.8125 49.953125 -23.125 Z M 49.953125 0 "/></g></g></g><g fill="#ffffff" fill-opacity="1"><g transform="translate(266.948717, 220.874985)"><g><path d="M 47.34375 -21.15625 C 47.40625 -19.894531 47.40625 -19.144531 47.34375 -18.90625 L 13.5 -18.984375 C 13.976562 -17.609375 14.847656 -16.289062 16.109375 -15.03125 C 18.453125 -12.8125 21.148438 -11.703125 24.203125 -11.703125 C 27.441406 -11.816406 30.144531 -12.957031 32.3125 -15.125 L 32.671875 -15.484375 L 44.375 -11.796875 C 41.789062 -7.773438 39.085938 -4.894531 36.265625 -3.15625 C 33.085938 -1.113281 29.097656 -0.0625 24.296875 0 C 17.941406 0.0625 12.484375 -2.15625 7.921875 -6.65625 C 3.359375 -11.15625 1.046875 -16.617188 0.984375 -23.046875 C 0.929688 -29.398438 3.15625 -34.859375 7.65625 -39.421875 C 12.15625 -43.984375 17.613281 -46.289062 24.03125 -46.34375 C 30.382812 -46.40625 35.84375 -44.1875 40.40625 -39.6875 C 44.96875 -35.1875 47.28125 -29.726562 47.34375 -23.3125 Z M 24.125 -34.5625 C 20.9375 -34.5625 18.234375 -33.453125 16.015625 -31.234375 C 14.878906 -29.972656 14.070312 -28.710938 13.59375 -27.453125 L 34.734375 -27.453125 C 34.253906 -28.710938 33.414062 -30 32.21875 -31.3125 C 29.9375 -33.476562 27.238281 -34.5625 24.125 -34.5625 Z M 24.125 -34.5625 "/></g></g></g><g fill="#ffffff" fill-opacity="1"><g transform="translate(315.272422, 220.874985)"><g><path d="M 25.734375 -46.171875 C 32.335938 -46.710938 37.800781 -45.003906 42.125 -41.046875 C 46.738281 -36.785156 49.046875 -30.8125 49.046875 -23.125 L 49.046875 0 L 37.34375 0 L 37.34375 -22.859375 L 37.265625 -22.859375 L 37.265625 -23.046875 C 37.265625 -26.222656 36.15625 -28.921875 33.9375 -31.140625 C 31.707031 -33.359375 29.003906 -34.46875 25.828125 -34.46875 C 22.585938 -34.351562 19.890625 -33.210938 17.734375 -31.046875 C 15.453125 -28.765625 14.367188 -26.066406 14.484375 -22.953125 L 14.484375 -22.859375 L 14.40625 -22.859375 L 14.40625 0 L 1.796875 0 L 1.796875 -46.53125 L 14.40625 -46.53125 L 14.40625 -40.5 C 17.21875 -43.863281 20.992188 -45.753906 25.734375 -46.171875 Z M 25.734375 -46.171875 "/></g></g></g></svg>