<svg xmlns="http://www.w3.org/2000/svg" xmlns:xlink="http://www.w3.org/1999/xlink" viewBox="50 0 275 375" preserveAspectRatio="xMidYMid meet" ><defs><clipPath id="60896fdb23"><path d="M 123.402344 5.023438 L 311.164062 5.023438 L 311.164062 229 L 123.402344 229 Z M 123.402344 5.023438 " clip-rule="nonzero"/></clipPath></defs><g clip-path="url(#60896fdb23)"><path fill="#737373" d="M 179.683594 214.453125 C 179.679688 222.386719 186.175781 228.878906 194.109375 228.878906 L 243.277344 228.886719 C 251.210938 228.878906 257.699219 222.390625 257.707031 214.453125 L 257.699219 114.316406 C 257.707031 106.378906 264.195312 99.890625 272.128906 99.890625 L 303.714844 99.894531 C 311.648438 99.890625 313.542969 95.300781 307.941406 89.691406 L 227.480469 9.234375 C 221.875 3.625 212.699219 3.625 207.085938 9.234375 L 126.636719 89.691406 C 121.023438 95.300781 122.929688 99.894531 130.863281 99.894531 L 165.257812 99.894531 C 173.191406 99.894531 179.683594 106.382812 179.6875 114.320312 L 179.683594 214.453125 " fill-opacity="1" fill-rule="nonzero"/></g><path fill="#737373" d="M 115.199219 139.707031 C 118.734375 136.167969 123.621094 133.976562 129.007812 133.976562 C 131.828125 133.980469 134.117188 136.269531 134.121094 139.085938 C 134.117188 141.914062 131.828125 144.199219 129.003906 144.199219 C 123.867188 144.199219 119.6875 148.371094 119.6875 153.511719 L 119.6875 253.660156 C 119.695312 258.863281 117.65625 263.753906 113.957031 267.460938 C 110.257812 271.152344 105.359375 273.199219 100.15625 273.195312 L 68.570312 273.191406 C 67.828125 273.191406 67.242188 273.25 66.792969 273.320312 C 67.054688 273.691406 67.433594 274.140625 67.964844 274.675781 L 148.414062 355.121094 C 152.046875 358.75 157.957031 358.757812 161.59375 355.121094 L 242.035156 274.671875 C 242.554688 274.140625 242.9375 273.6875 243.203125 273.316406 C 242.75 273.25 242.164062 273.195312 241.425781 273.183594 L 207.375 273.414062 C 204.554688 273.4375 202.246094 271.15625 202.238281 268.34375 C 202.214844 265.515625 204.488281 263.207031 207.308594 263.195312 L 241.390625 262.96875 C 249.570312 262.96875 252.390625 266.824219 253.332031 269.125 C 254.292969 271.421875 255.023438 276.136719 249.257812 281.890625 L 168.816406 362.34375 C 161.199219 369.964844 148.800781 369.964844 141.191406 362.351562 L 60.734375 281.898438 C 54.964844 276.132812 55.703125 271.421875 56.652344 269.117188 C 57.605469 266.824219 60.421875 262.96875 68.570312 262.972656 L 100.15625 262.972656 C 102.628906 262.972656 104.964844 262 106.726562 260.238281 C 108.5 258.464844 109.472656 256.125 109.464844 253.652344 L 109.472656 153.507812 C 109.464844 148.132812 111.660156 143.246094 115.199219 139.707031 " fill-opacity="1" fill-rule="nonzero"/><path stroke-linecap="round" transform="matrix(-0.274089, 0.698123, -0.698123, -0.274089, 214.078877, 199.061514)" fill="none" stroke-linejoin="miter" d="M 9.001768 9.000518 L 9.029815 9.000698 " stroke="#737373" stroke-width="18" stroke-opacity="1" stroke-miterlimit="4"/></svg>