<svg xmlns="http://www.w3.org/2000/svg" xmlns:xlink="http://www.w3.org/1999/xlink" width="810" zoomAndPan="magnify" viewBox="0 0 607.5 607.499986" height="810" preserveAspectRatio="xMidYMid meet" version="1.0"><defs><clipPath id="756af95a4f"><path d="M 38.515625 47.003906 L 568.484375 47.003906 L 568.484375 576.976562 L 38.515625 576.976562 Z M 38.515625 47.003906 " clip-rule="nonzero"/></clipPath><clipPath id="c24459ddd7"><path d="M 94.71875 47.003906 L 512.28125 47.003906 C 543.324219 47.003906 568.484375 72.167969 568.484375 103.207031 L 568.484375 520.773438 C 568.484375 551.816406 543.324219 576.976562 512.28125 576.976562 L 94.71875 576.976562 C 63.675781 576.976562 38.515625 551.816406 38.515625 520.773438 L 38.515625 103.207031 C 38.515625 72.167969 63.675781 47.003906 94.71875 47.003906 Z M 94.71875 47.003906 " clip-rule="nonzero"/></clipPath><clipPath id="d08c520559"><path d="M 94.71875 47.003906 L 512.28125 47.003906 C 543.324219 47.003906 568.484375 72.167969 568.484375 103.207031 L 568.484375 520.773438 C 568.484375 551.816406 543.324219 576.976562 512.28125 576.976562 L 94.71875 576.976562 C 63.675781 576.976562 38.515625 551.816406 38.515625 520.773438 L 38.515625 103.207031 C 38.515625 72.167969 63.675781 47.003906 94.71875 47.003906 Z M 94.71875 47.003906 " clip-rule="nonzero"/></clipPath><clipPath id="0b769183d7"><path d="M 38.515625 47.003906 L 568.511719 47.003906 L 568.511719 577 L 38.515625 577 Z M 38.515625 47.003906 " clip-rule="nonzero"/></clipPath><clipPath id="4a99638c46"><path d="M 94.714844 47.003906 L 512.277344 47.003906 C 543.316406 47.003906 568.476562 72.167969 568.476562 103.207031 L 568.476562 520.769531 C 568.476562 551.804688 543.316406 576.96875 512.277344 576.96875 L 94.714844 576.96875 C 63.675781 576.96875 38.515625 551.804688 38.515625 520.769531 L 38.515625 103.207031 C 38.515625 72.167969 63.675781 47.003906 94.714844 47.003906 Z M 94.714844 47.003906 " clip-rule="nonzero"/></clipPath><clipPath id="059ecd3daf"><path d="M 35.46875 45.570312 L 572 45.570312 L 572 581.191406 L 35.46875 581.191406 Z M 35.46875 45.570312 " clip-rule="nonzero"/></clipPath><clipPath id="31a0492d20"><path d="M 91.671875 45.570312 L 515.761719 45.570312 C 546.804688 45.570312 571.964844 70.730469 571.964844 101.769531 L 571.964844 524.988281 C 571.964844 556.027344 546.804688 581.191406 515.761719 581.191406 L 91.671875 581.191406 C 60.628906 581.191406 35.46875 556.027344 35.46875 524.988281 L 35.46875 101.769531 C 35.46875 70.730469 60.628906 45.570312 91.671875 45.570312 Z M 91.671875 45.570312 " clip-rule="nonzero"/></clipPath><clipPath id="0a3e1a6906"><path d="M 66.574219 77.28125 L 540 77.28125 L 540 546.703125 L 66.574219 546.703125 Z M 66.574219 77.28125 " clip-rule="nonzero"/></clipPath><clipPath id="98ca760821"><path d="M 95.238281 77.28125 L 511.761719 77.28125 C 519.363281 77.28125 526.65625 80.296875 532.03125 85.675781 C 537.40625 91.050781 540.425781 98.34375 540.425781 105.945312 L 540.425781 518.039062 C 540.425781 525.640625 537.40625 532.929688 532.03125 538.308594 C 526.65625 543.683594 519.363281 546.703125 511.761719 546.703125 L 95.238281 546.703125 C 87.636719 546.703125 80.34375 543.683594 74.96875 538.308594 C 69.59375 532.929688 66.574219 525.640625 66.574219 518.039062 L 66.574219 105.945312 C 66.574219 98.34375 69.59375 91.050781 74.96875 85.675781 C 80.34375 80.296875 87.636719 77.28125 95.238281 77.28125 Z M 95.238281 77.28125 " clip-rule="nonzero"/></clipPath><clipPath id="caae753f76"><path d="M 95.238281 77.28125 L 511.761719 77.28125 C 519.363281 77.28125 526.65625 80.296875 532.03125 85.675781 C 537.40625 91.050781 540.425781 98.34375 540.425781 105.945312 L 540.425781 518.039062 C 540.425781 525.640625 537.40625 532.929688 532.03125 538.308594 C 526.65625 543.683594 519.363281 546.703125 511.761719 546.703125 L 95.238281 546.703125 C 87.636719 546.703125 80.34375 543.683594 74.96875 538.308594 C 69.59375 532.929688 66.574219 525.640625 66.574219 518.039062 L 66.574219 105.945312 C 66.574219 98.34375 69.59375 91.050781 74.96875 85.675781 C 80.34375 80.296875 87.636719 77.28125 95.238281 77.28125 Z M 95.238281 77.28125 " clip-rule="nonzero"/></clipPath><clipPath id="ec290c5857"><path d="M 66.574219 77.28125 L 540.371094 77.28125 L 540.371094 546.582031 L 66.574219 546.582031 Z M 66.574219 77.28125 " clip-rule="nonzero"/></clipPath><clipPath id="af901bc5a3"><path d="M 95.238281 77.28125 L 511.761719 77.28125 C 519.363281 77.28125 526.652344 80.300781 532.03125 85.675781 C 537.40625 91.050781 540.425781 98.34375 540.425781 105.945312 L 540.425781 518.039062 C 540.425781 525.640625 537.40625 532.929688 532.03125 538.304688 C 526.652344 543.683594 519.363281 546.703125 511.761719 546.703125 L 95.238281 546.703125 C 87.636719 546.703125 80.34375 543.683594 74.96875 538.304688 C 69.59375 532.929688 66.574219 525.640625 66.574219 518.039062 L 66.574219 105.945312 C 66.574219 98.34375 69.59375 91.050781 74.96875 85.675781 C 80.34375 80.300781 87.636719 77.28125 95.238281 77.28125 Z M 95.238281 77.28125 " clip-rule="nonzero"/></clipPath><clipPath id="b652751f28"><path d="M 148.6875 121.542969 L 240.5625 121.542969 L 240.5625 213.414062 L 148.6875 213.414062 Z M 148.6875 121.542969 " clip-rule="nonzero"/></clipPath><clipPath id="fba0ff37b5"><path d="M 176.789062 121.542969 L 212.457031 121.542969 C 227.980469 121.542969 240.5625 134.125 240.5625 149.644531 L 240.5625 185.3125 C 240.5625 200.832031 227.980469 213.414062 212.457031 213.414062 L 176.789062 213.414062 C 161.273438 213.414062 148.6875 200.832031 148.6875 185.3125 L 148.6875 149.644531 C 148.6875 134.125 161.273438 121.542969 176.789062 121.542969 Z M 176.789062 121.542969 " clip-rule="nonzero"/></clipPath><clipPath id="ef62920191"><path d="M 176.789062 121.542969 L 212.457031 121.542969 C 227.980469 121.542969 240.5625 134.125 240.5625 149.644531 L 240.5625 185.3125 C 240.5625 200.832031 227.980469 213.414062 212.457031 213.414062 L 176.789062 213.414062 C 161.273438 213.414062 148.6875 200.832031 148.6875 185.3125 L 148.6875 149.644531 C 148.6875 134.125 161.273438 121.542969 176.789062 121.542969 Z M 176.789062 121.542969 " clip-rule="nonzero"/></clipPath><clipPath id="0533fcc5e1"><path d="M 148.6875 121.542969 L 240.300781 121.542969 L 240.300781 213.15625 L 148.6875 213.15625 Z M 148.6875 121.542969 " clip-rule="nonzero"/></clipPath><clipPath id="fb5d2ca41b"><path d="M 176.789062 121.542969 L 212.457031 121.542969 C 227.976562 121.542969 240.554688 134.121094 240.554688 149.640625 L 240.554688 185.308594 C 240.554688 200.828125 227.976562 213.410156 212.457031 213.410156 L 176.789062 213.410156 C 161.269531 213.410156 148.6875 200.828125 148.6875 185.308594 L 148.6875 149.640625 C 148.6875 134.121094 161.269531 121.542969 176.789062 121.542969 Z M 176.789062 121.542969 " clip-rule="nonzero"/></clipPath><clipPath id="78aa7d35a0"><path d="M 255.734375 121.035156 L 347.609375 121.035156 L 347.609375 212.910156 L 255.734375 212.910156 Z M 255.734375 121.035156 " clip-rule="nonzero"/></clipPath><clipPath id="33662cd782"><path d="M 283.835938 121.035156 L 319.507812 121.035156 C 335.027344 121.035156 347.609375 133.617188 347.609375 149.140625 L 347.609375 184.808594 C 347.609375 200.328125 335.027344 212.910156 319.507812 212.910156 L 283.835938 212.910156 C 268.316406 212.910156 255.734375 200.328125 255.734375 184.808594 L 255.734375 149.140625 C 255.734375 133.617188 268.316406 121.035156 283.835938 121.035156 Z M 283.835938 121.035156 " clip-rule="nonzero"/></clipPath><clipPath id="f11da5bd12"><path d="M 283.835938 121.035156 L 319.507812 121.035156 C 335.027344 121.035156 347.609375 133.617188 347.609375 149.140625 L 347.609375 184.808594 C 347.609375 200.328125 335.027344 212.910156 319.507812 212.910156 L 283.835938 212.910156 C 268.316406 212.910156 255.734375 200.328125 255.734375 184.808594 L 255.734375 149.140625 C 255.734375 133.617188 268.316406 121.035156 283.835938 121.035156 Z M 283.835938 121.035156 " clip-rule="nonzero"/></clipPath><clipPath id="615198ef22"><path d="M 255.734375 121.035156 L 347.347656 121.035156 L 347.347656 212.648438 L 255.734375 212.648438 Z M 255.734375 121.035156 " clip-rule="nonzero"/></clipPath><clipPath id="fcd28db1ef"><path d="M 283.835938 121.035156 L 319.503906 121.035156 C 335.019531 121.035156 347.601562 133.617188 347.601562 149.136719 L 347.601562 184.800781 C 347.601562 200.324219 335.019531 212.902344 319.503906 212.902344 L 283.835938 212.902344 C 268.316406 212.902344 255.734375 200.324219 255.734375 184.800781 L 255.734375 149.136719 C 255.734375 133.617188 268.316406 121.035156 283.835938 121.035156 Z M 283.835938 121.035156 " clip-rule="nonzero"/></clipPath><clipPath id="a277f04ae2"><path d="M 362.863281 121.542969 L 454.734375 121.542969 L 454.734375 213.414062 L 362.863281 213.414062 Z M 362.863281 121.542969 " clip-rule="nonzero"/></clipPath><clipPath id="5d38d74d1d"><path d="M 390.964844 121.542969 L 426.632812 121.542969 C 442.152344 121.542969 454.734375 134.125 454.734375 149.644531 L 454.734375 185.3125 C 454.734375 200.832031 442.152344 213.414062 426.632812 213.414062 L 390.964844 213.414062 C 375.445312 213.414062 362.863281 200.832031 362.863281 185.3125 L 362.863281 149.644531 C 362.863281 134.125 375.445312 121.542969 390.964844 121.542969 Z M 390.964844 121.542969 " clip-rule="nonzero"/></clipPath><clipPath id="af802416b7"><path d="M 390.964844 121.542969 L 426.632812 121.542969 C 442.152344 121.542969 454.734375 134.125 454.734375 149.644531 L 454.734375 185.3125 C 454.734375 200.832031 442.152344 213.414062 426.632812 213.414062 L 390.964844 213.414062 C 375.445312 213.414062 362.863281 200.832031 362.863281 185.3125 L 362.863281 149.644531 C 362.863281 134.125 375.445312 121.542969 390.964844 121.542969 Z M 390.964844 121.542969 " clip-rule="nonzero"/></clipPath><clipPath id="4408d4a4b4"><path d="M 362.863281 121.542969 L 454.472656 121.542969 L 454.472656 213.15625 L 362.863281 213.15625 Z M 362.863281 121.542969 " clip-rule="nonzero"/></clipPath><clipPath id="c2f3ee08fd"><path d="M 390.960938 121.542969 L 426.628906 121.542969 C 442.148438 121.542969 454.730469 134.121094 454.730469 149.640625 L 454.730469 185.308594 C 454.730469 200.828125 442.148438 213.410156 426.628906 213.410156 L 390.960938 213.410156 C 375.445312 213.410156 362.863281 200.828125 362.863281 185.308594 L 362.863281 149.640625 C 362.863281 134.121094 375.445312 121.542969 390.960938 121.542969 Z M 390.960938 121.542969 " clip-rule="nonzero"/></clipPath><clipPath id="c6e641667b"><path d="M 100.210938 353.113281 L 516.324219 353.113281 L 516.324219 503.945312 L 100.210938 503.945312 Z M 100.210938 353.113281 " clip-rule="nonzero"/></clipPath><clipPath id="90004e0b6e"><path d="M 142.363281 353.113281 L 474.09375 353.113281 C 497.375 353.113281 516.246094 371.988281 516.246094 395.265625 L 516.246094 461.792969 C 516.246094 485.074219 497.375 503.945312 474.09375 503.945312 L 142.363281 503.945312 C 119.082031 503.945312 100.210938 485.074219 100.210938 461.792969 L 100.210938 395.265625 C 100.210938 371.988281 119.082031 353.113281 142.363281 353.113281 Z M 142.363281 353.113281 " clip-rule="nonzero"/></clipPath><clipPath id="652ff891d6"><path d="M 142.363281 353.113281 L 474.09375 353.113281 C 497.375 353.113281 516.246094 371.988281 516.246094 395.265625 L 516.246094 461.792969 C 516.246094 485.074219 497.375 503.945312 474.09375 503.945312 L 142.363281 503.945312 C 119.082031 503.945312 100.210938 485.074219 100.210938 461.792969 L 100.210938 395.265625 C 100.210938 371.988281 119.082031 353.113281 142.363281 353.113281 Z M 142.363281 353.113281 " clip-rule="nonzero"/></clipPath><clipPath id="37d3b43af6"><path d="M 100.210938 353.113281 L 516.117188 353.113281 L 516.117188 503.742188 L 100.210938 503.742188 Z M 100.210938 353.113281 " clip-rule="nonzero"/></clipPath><clipPath id="b1abfc7018"><path d="M 142.363281 353.113281 L 474.085938 353.113281 C 497.367188 353.113281 516.238281 371.988281 516.238281 395.265625 L 516.238281 461.789062 C 516.238281 485.070312 497.367188 503.941406 474.085938 503.941406 L 142.363281 503.941406 C 119.082031 503.941406 100.210938 485.070312 100.210938 461.789062 L 100.210938 395.265625 C 100.210938 371.988281 119.082031 353.113281 142.363281 353.113281 Z M 142.363281 353.113281 " clip-rule="nonzero"/></clipPath><clipPath id="4d2458cd1e"><path d="M 237.328125 364.1875 L 366.015625 364.1875 L 366.015625 492.871094 L 237.328125 492.871094 Z M 237.328125 364.1875 " clip-rule="nonzero"/></clipPath><clipPath id="f2ec02e647"><path d="M 301.671875 364.1875 C 266.136719 364.1875 237.328125 392.996094 237.328125 428.53125 C 237.328125 464.066406 266.136719 492.871094 301.671875 492.871094 C 337.207031 492.871094 366.015625 464.066406 366.015625 428.53125 C 366.015625 392.996094 337.207031 364.1875 301.671875 364.1875 Z M 301.671875 364.1875 " clip-rule="nonzero"/></clipPath><clipPath id="826429f5aa"><path d="M 301.671875 364.1875 C 266.136719 364.1875 237.328125 392.996094 237.328125 428.53125 C 237.328125 464.066406 266.136719 492.871094 301.671875 492.871094 C 337.207031 492.871094 366.015625 464.066406 366.015625 428.53125 C 366.015625 392.996094 337.207031 364.1875 301.671875 364.1875 Z M 301.671875 364.1875 " clip-rule="nonzero"/></clipPath><clipPath id="e3ed8d4187"><path d="M 163.226562 374.148438 L 275 374.148438 L 275 447.371094 L 163.226562 447.371094 Z M 163.226562 374.148438 " clip-rule="nonzero"/></clipPath><clipPath id="beb14a740f"><path d="M 226.582031 374.148438 C 227.804688 374.148438 229.035156 374.148438 230.257812 374.148438 C 239.996094 375.371094 246.082031 379.441406 248.855469 386.105469 C 265.089844 385.214844 276.894531 397.8125 269.699219 410.171875 C 272.09375 412.773438 274.085938 415.679688 274.808594 419.578125 C 274.808594 420.695312 274.808594 421.808594 274.808594 422.925781 C 272.660156 432.855469 263.417969 439.558594 248.246094 437.753906 C 244.339844 442.851562 237.394531 447.957031 226.582031 447.320312 C 220.996094 446.988281 217.109375 445.046875 213.703125 442.691406 C 210.121094 444.652344 206.238281 446.1875 200.625 446.203125 C 187.648438 446.230469 178.96875 438.691406 178.757812 428.347656 C 170.414062 425.929688 164.765625 421.414062 163.226562 413.6875 C 163.226562 412.566406 163.226562 411.449219 163.226562 410.335938 C 164.925781 402.675781 170.269531 397.867188 179.164062 395.828125 C 178.632812 382.910156 196.425781 374.839844 211.046875 380.527344 C 214.527344 377.714844 219.453125 374.644531 226.582031 374.148438 Z M 226.582031 374.148438 " clip-rule="nonzero"/></clipPath><clipPath id="f56db34039"><path d="M 226.582031 374.148438 C 227.804688 374.148438 229.035156 374.148438 230.257812 374.148438 C 239.996094 375.371094 246.082031 379.441406 248.855469 386.105469 C 265.089844 385.214844 276.894531 397.8125 269.699219 410.171875 C 272.09375 412.773438 274.085938 415.679688 274.808594 419.578125 C 274.808594 420.695312 274.808594 421.808594 274.808594 422.925781 C 272.660156 432.855469 263.417969 439.558594 248.246094 437.753906 C 244.339844 442.851562 237.394531 447.957031 226.582031 447.320312 C 220.996094 446.988281 217.109375 445.046875 213.703125 442.691406 C 210.121094 444.652344 206.238281 446.1875 200.625 446.203125 C 187.648438 446.230469 178.96875 438.691406 178.757812 428.347656 C 170.414062 425.929688 164.765625 421.414062 163.226562 413.6875 C 163.226562 412.566406 163.226562 411.449219 163.226562 410.335938 C 164.925781 402.675781 170.269531 397.867188 179.164062 395.828125 C 178.632812 382.910156 196.425781 374.839844 211.046875 380.527344 C 214.527344 377.714844 219.453125 374.644531 226.582031 374.148438 Z M 226.582031 374.148438 " clip-rule="nonzero"/></clipPath><clipPath id="bbd11a6fb1"><path d="M 301.941406 374.148438 L 413.660156 374.148438 L 413.660156 447.371094 L 301.941406 447.371094 Z M 301.941406 374.148438 " clip-rule="nonzero"/></clipPath><clipPath id="f49dec7c34"><path d="M 365.296875 374.148438 C 366.523438 374.148438 367.753906 374.148438 368.976562 374.148438 C 378.714844 375.371094 384.800781 379.441406 387.570312 386.105469 C 403.804688 385.214844 415.613281 397.8125 408.417969 410.171875 C 410.808594 412.773438 412.804688 415.679688 413.523438 419.578125 C 413.523438 420.695312 413.523438 421.808594 413.523438 422.925781 C 411.375 432.855469 402.136719 439.558594 386.960938 437.753906 C 383.058594 442.851562 376.109375 447.957031 365.300781 447.320312 C 359.710938 446.988281 355.824219 445.046875 352.421875 442.691406 C 348.835938 444.652344 344.953125 446.1875 339.34375 446.203125 C 326.367188 446.230469 317.6875 438.691406 317.476562 428.347656 C 309.132812 425.929688 303.484375 421.414062 301.941406 413.6875 C 301.941406 412.566406 301.941406 411.449219 301.941406 410.335938 C 303.640625 402.675781 308.984375 397.867188 317.882812 395.828125 C 317.347656 382.910156 335.144531 374.839844 349.761719 380.527344 C 353.242188 377.714844 358.171875 374.644531 365.296875 374.148438 Z M 365.296875 374.148438 " clip-rule="nonzero"/></clipPath><clipPath id="1ed4f67e06"><path d="M 365.296875 374.148438 C 366.523438 374.148438 367.753906 374.148438 368.976562 374.148438 C 378.714844 375.371094 384.800781 379.441406 387.570312 386.105469 C 403.804688 385.214844 415.613281 397.8125 408.417969 410.171875 C 410.808594 412.773438 412.804688 415.679688 413.523438 419.578125 C 413.523438 420.695312 413.523438 421.808594 413.523438 422.925781 C 411.375 432.855469 402.136719 439.558594 386.960938 437.753906 C 383.058594 442.851562 376.109375 447.957031 365.300781 447.320312 C 359.710938 446.988281 355.824219 445.046875 352.421875 442.691406 C 348.835938 444.652344 344.953125 446.1875 339.34375 446.203125 C 326.367188 446.230469 317.6875 438.691406 317.476562 428.347656 C 309.132812 425.929688 303.484375 421.414062 301.941406 413.6875 C 301.941406 412.566406 301.941406 411.449219 301.941406 410.335938 C 303.640625 402.675781 308.984375 397.867188 317.882812 395.828125 C 317.347656 382.910156 335.144531 374.839844 349.761719 380.527344 C 353.242188 377.714844 358.171875 374.644531 365.296875 374.148438 Z M 365.296875 374.148438 " clip-rule="nonzero"/></clipPath><clipPath id="3788459bd3"><path d="M 366.015625 404.910156 L 477.855469 404.910156 L 477.855469 478.136719 L 366.015625 478.136719 Z M 366.015625 404.910156 " clip-rule="nonzero"/></clipPath><clipPath id="34cbdbc69b"><path d="M 429.371094 404.910156 C 430.59375 404.910156 431.824219 404.910156 433.046875 404.910156 C 442.78125 406.132812 448.867188 410.207031 451.640625 416.867188 C 467.878906 415.976562 479.679688 428.574219 472.488281 440.9375 C 474.878906 443.535156 476.878906 446.4375 477.597656 450.339844 C 477.597656 451.457031 477.597656 452.570312 477.597656 453.691406 C 475.449219 463.617188 466.207031 470.324219 451.03125 468.515625 C 447.128906 473.613281 440.179688 478.71875 429.371094 478.082031 C 423.78125 477.75 419.898438 475.808594 416.492188 473.453125 C 412.90625 475.414062 409.027344 476.945312 403.417969 476.964844 C 390.4375 476.992188 381.757812 469.453125 381.546875 459.113281 C 373.203125 456.691406 367.554688 452.175781 366.015625 444.445312 C 366.015625 443.332031 366.015625 442.210938 366.015625 441.097656 C 367.714844 433.4375 373.054688 428.628906 381.953125 426.589844 C 381.417969 413.671875 399.214844 405.601562 413.835938 411.292969 C 417.316406 408.476562 422.238281 405.40625 429.371094 404.910156 Z M 429.371094 404.910156 " clip-rule="nonzero"/></clipPath><clipPath id="8ed573069c"><path d="M 429.371094 404.910156 C 430.59375 404.910156 431.824219 404.910156 433.046875 404.910156 C 442.78125 406.132812 448.867188 410.207031 451.640625 416.867188 C 467.878906 415.976562 479.679688 428.574219 472.488281 440.9375 C 474.878906 443.535156 476.878906 446.4375 477.597656 450.339844 C 477.597656 451.457031 477.597656 452.570312 477.597656 453.691406 C 475.449219 463.617188 466.207031 470.324219 451.03125 468.515625 C 447.128906 473.613281 440.179688 478.71875 429.371094 478.082031 C 423.78125 477.75 419.898438 475.808594 416.492188 473.453125 C 412.90625 475.414062 409.027344 476.945312 403.417969 476.964844 C 390.4375 476.992188 381.757812 469.453125 381.546875 459.113281 C 373.203125 456.691406 367.554688 452.175781 366.015625 444.445312 C 366.015625 443.332031 366.015625 442.210938 366.015625 441.097656 C 367.714844 433.4375 373.054688 428.628906 381.953125 426.589844 C 381.417969 413.671875 399.214844 405.601562 413.835938 411.292969 C 417.316406 408.476562 422.238281 405.40625 429.371094 404.910156 Z M 429.371094 404.910156 " clip-rule="nonzero"/></clipPath><clipPath id="467b97f67d"><path d="M 255.734375 237.078125 L 347.609375 237.078125 L 347.609375 328.945312 L 255.734375 328.945312 Z M 255.734375 237.078125 " clip-rule="nonzero"/></clipPath><clipPath id="695923188f"><path d="M 283.835938 237.078125 L 319.507812 237.078125 C 335.027344 237.078125 347.609375 249.660156 347.609375 265.179688 L 347.609375 300.84375 C 347.609375 316.367188 335.027344 328.945312 319.507812 328.945312 L 283.835938 328.945312 C 268.316406 328.945312 255.734375 316.367188 255.734375 300.84375 L 255.734375 265.179688 C 255.734375 249.660156 268.316406 237.078125 283.835938 237.078125 Z M 283.835938 237.078125 " clip-rule="nonzero"/></clipPath><clipPath id="0e44c0ce01"><path d="M 283.835938 237.078125 L 319.507812 237.078125 C 335.027344 237.078125 347.609375 249.660156 347.609375 265.179688 L 347.609375 300.84375 C 347.609375 316.367188 335.027344 328.945312 319.507812 328.945312 L 283.835938 328.945312 C 268.316406 328.945312 255.734375 316.367188 255.734375 300.84375 L 255.734375 265.179688 C 255.734375 249.660156 268.316406 237.078125 283.835938 237.078125 Z M 283.835938 237.078125 " clip-rule="nonzero"/></clipPath><clipPath id="9eb5b4321e"><path d="M 255.734375 237.078125 L 347.347656 237.078125 L 347.347656 328.6875 L 255.734375 328.6875 Z M 255.734375 237.078125 " clip-rule="nonzero"/></clipPath><clipPath id="e7088cfcfd"><path d="M 283.835938 237.078125 L 319.503906 237.078125 C 335.019531 237.078125 347.601562 249.65625 347.601562 265.175781 L 347.601562 300.84375 C 347.601562 316.363281 335.019531 328.945312 319.503906 328.945312 L 283.835938 328.945312 C 268.316406 328.945312 255.734375 316.363281 255.734375 300.84375 L 255.734375 265.175781 C 255.734375 249.65625 268.316406 237.078125 283.835938 237.078125 Z M 283.835938 237.078125 " clip-rule="nonzero"/></clipPath><clipPath id="74fa5a125c"><path d="M 148.613281 237.078125 L 240.480469 237.078125 L 240.480469 328.945312 L 148.613281 328.945312 Z M 148.613281 237.078125 " clip-rule="nonzero"/></clipPath><clipPath id="30dd958822"><path d="M 176.714844 237.078125 L 212.378906 237.078125 C 227.898438 237.078125 240.480469 249.660156 240.480469 265.179688 L 240.480469 300.84375 C 240.480469 316.367188 227.898438 328.945312 212.378906 328.945312 L 176.714844 328.945312 C 161.195312 328.945312 148.613281 316.367188 148.613281 300.84375 L 148.613281 265.179688 C 148.613281 249.660156 161.195312 237.078125 176.714844 237.078125 Z M 176.714844 237.078125 " clip-rule="nonzero"/></clipPath><clipPath id="04ef82eea7"><path d="M 176.714844 237.078125 L 212.378906 237.078125 C 227.898438 237.078125 240.480469 249.660156 240.480469 265.179688 L 240.480469 300.84375 C 240.480469 316.367188 227.898438 328.945312 212.378906 328.945312 L 176.714844 328.945312 C 161.195312 328.945312 148.613281 316.367188 148.613281 300.84375 L 148.613281 265.179688 C 148.613281 249.660156 161.195312 237.078125 176.714844 237.078125 Z M 176.714844 237.078125 " clip-rule="nonzero"/></clipPath><clipPath id="578e8d4981"><path d="M 148.613281 237.078125 L 240.222656 237.078125 L 240.222656 328.6875 L 148.613281 328.6875 Z M 148.613281 237.078125 " clip-rule="nonzero"/></clipPath><clipPath id="a882c15c50"><path d="M 176.710938 237.078125 L 212.378906 237.078125 C 227.898438 237.078125 240.480469 249.65625 240.480469 265.175781 L 240.480469 300.84375 C 240.480469 316.363281 227.898438 328.945312 212.378906 328.945312 L 176.710938 328.945312 C 161.191406 328.945312 148.613281 316.363281 148.613281 300.84375 L 148.613281 265.175781 C 148.613281 249.65625 161.191406 237.078125 176.710938 237.078125 Z M 176.710938 237.078125 " clip-rule="nonzero"/></clipPath><clipPath id="61d4bc626a"><path d="M 362.863281 237.078125 L 454.734375 237.078125 L 454.734375 328.945312 L 362.863281 328.945312 Z M 362.863281 237.078125 " clip-rule="nonzero"/></clipPath><clipPath id="0cf54b8e63"><path d="M 390.964844 237.078125 L 426.632812 237.078125 C 442.152344 237.078125 454.734375 249.660156 454.734375 265.179688 L 454.734375 300.84375 C 454.734375 316.367188 442.152344 328.945312 426.632812 328.945312 L 390.964844 328.945312 C 375.445312 328.945312 362.863281 316.367188 362.863281 300.84375 L 362.863281 265.179688 C 362.863281 249.660156 375.445312 237.078125 390.964844 237.078125 Z M 390.964844 237.078125 " clip-rule="nonzero"/></clipPath><clipPath id="2d0843a500"><path d="M 390.964844 237.078125 L 426.632812 237.078125 C 442.152344 237.078125 454.734375 249.660156 454.734375 265.179688 L 454.734375 300.84375 C 454.734375 316.367188 442.152344 328.945312 426.632812 328.945312 L 390.964844 328.945312 C 375.445312 328.945312 362.863281 316.367188 362.863281 300.84375 L 362.863281 265.179688 C 362.863281 249.660156 375.445312 237.078125 390.964844 237.078125 Z M 390.964844 237.078125 " clip-rule="nonzero"/></clipPath><clipPath id="769e593613"><path d="M 362.863281 237.078125 L 454.472656 237.078125 L 454.472656 328.6875 L 362.863281 328.6875 Z M 362.863281 237.078125 " clip-rule="nonzero"/></clipPath><clipPath id="13c8a9a0cd"><path d="M 390.960938 237.078125 L 426.628906 237.078125 C 442.148438 237.078125 454.730469 249.65625 454.730469 265.175781 L 454.730469 300.84375 C 454.730469 316.363281 442.148438 328.945312 426.628906 328.945312 L 390.960938 328.945312 C 375.445312 328.945312 362.863281 316.363281 362.863281 300.84375 L 362.863281 265.175781 C 362.863281 249.65625 375.445312 237.078125 390.960938 237.078125 Z M 390.960938 237.078125 " clip-rule="nonzero"/></clipPath><clipPath id="3fd2c448e5"><path d="M 80.421875 91.378906 L 525 91.378906 L 525 528.269531 L 80.421875 528.269531 Z M 80.421875 91.378906 " clip-rule="nonzero"/></clipPath><clipPath id="631852af49"><path d="M 108.898438 91.378906 L 496.492188 91.378906 C 504.042969 91.378906 511.285156 94.378906 516.625 99.71875 C 521.964844 105.058594 524.96875 112.304688 524.96875 119.855469 L 524.96875 499.792969 C 524.96875 507.34375 521.964844 514.589844 516.625 519.929688 C 511.285156 525.269531 504.042969 528.269531 496.492188 528.269531 L 108.898438 528.269531 C 101.347656 528.269531 94.101562 525.269531 88.761719 519.929688 C 83.421875 514.589844 80.421875 507.34375 80.421875 499.792969 L 80.421875 119.855469 C 80.421875 112.304688 83.421875 105.058594 88.761719 99.71875 C 94.101562 94.378906 101.347656 91.378906 108.898438 91.378906 Z M 108.898438 91.378906 " clip-rule="nonzero"/></clipPath><clipPath id="77c3ac3c59"><path d="M 0.421875 0.378906 L 445 0.378906 L 445 437.269531 L 0.421875 437.269531 Z M 0.421875 0.378906 " clip-rule="nonzero"/></clipPath><clipPath id="d85ca535b9"><path d="M 28.898438 0.378906 L 416.492188 0.378906 C 424.042969 0.378906 431.285156 3.378906 436.625 8.71875 C 441.964844 14.058594 444.96875 21.304688 444.96875 28.855469 L 444.96875 408.792969 C 444.96875 416.34375 441.964844 423.589844 436.625 428.929688 C 431.285156 434.269531 424.042969 437.269531 416.492188 437.269531 L 28.898438 437.269531 C 21.347656 437.269531 14.101562 434.269531 8.761719 428.929688 C 3.421875 423.589844 0.421875 416.34375 0.421875 408.792969 L 0.421875 28.855469 C 0.421875 21.304688 3.421875 14.058594 8.761719 8.71875 C 14.101562 3.378906 21.347656 0.378906 28.898438 0.378906 Z M 28.898438 0.378906 " clip-rule="nonzero"/></clipPath><clipPath id="f9ee5f6077"><rect x="0" width="445" y="0" height="438"/></clipPath><clipPath id="c5fa789388"><path d="M 211.28125 108.726562 L 394 108.726562 L 394 371.816406 L 211.28125 371.816406 Z M 211.28125 108.726562 " clip-rule="nonzero"/></clipPath><clipPath id="13abe38410"><path d="M 315.554688 365.671875 L 391.554688 285.273438 C 393.769531 282.933594 394.378906 279.496094 393.101562 276.535156 C 391.828125 273.578125 388.914062 271.660156 385.691406 271.660156 L 369.347656 271.660156 C 359 271.660156 350.613281 263.273438 350.613281 252.925781 L 350.613281 127.460938 C 350.613281 117.113281 342.222656 108.726562 331.878906 108.726562 L 273.496094 108.726562 C 263.148438 108.726562 254.761719 117.113281 254.761719 127.460938 L 254.761719 252.925781 C 254.761719 263.273438 246.371094 271.660156 236.027344 271.660156 L 219.683594 271.660156 C 216.457031 271.660156 213.546875 273.578125 212.269531 276.535156 C 210.996094 279.496094 211.601562 282.933594 213.816406 285.273438 L 289.816406 365.671875 C 293.160156 369.210938 297.816406 371.214844 302.6875 371.214844 C 307.554688 371.214844 312.210938 369.210938 315.554688 365.671875 Z M 315.554688 365.671875 " clip-rule="nonzero"/></clipPath><clipPath id="81915e5866"><path d="M 0.28125 0.726562 L 183 0.726562 L 183 263.453125 L 0.28125 263.453125 Z M 0.28125 0.726562 " clip-rule="nonzero"/></clipPath><clipPath id="ed5e6ca95f"><path d="M 104.554688 257.671875 L 180.554688 177.273438 C 182.769531 174.933594 183.378906 171.496094 182.101562 168.535156 C 180.828125 165.578125 177.914062 163.660156 174.691406 163.660156 L 158.347656 163.660156 C 148 163.660156 139.613281 155.273438 139.613281 144.925781 L 139.613281 19.460938 C 139.613281 9.113281 131.222656 0.726562 120.878906 0.726562 L 62.496094 0.726562 C 52.148438 0.726562 43.761719 9.113281 43.761719 19.460938 L 43.761719 144.925781 C 43.761719 155.273438 35.371094 163.660156 25.027344 163.660156 L 8.683594 163.660156 C 5.457031 163.660156 2.546875 165.578125 1.269531 168.535156 C -0.00390625 171.496094 0.601562 174.933594 2.816406 177.273438 L 78.816406 257.671875 C 82.160156 261.210938 86.816406 263.214844 91.6875 263.214844 C 96.554688 263.214844 101.210938 261.210938 104.554688 257.671875 Z M 104.554688 257.671875 " clip-rule="nonzero"/></clipPath><clipPath id="dda792c231"><rect x="0" width="183" y="0" height="264"/></clipPath><clipPath id="90b2edd3b0"><path d="M 211 108.730469 L 394 108.730469 L 394 372 L 211 372 Z M 211 108.730469 " clip-rule="nonzero"/></clipPath><clipPath id="053213a0b0"><path d="M 315.558594 365.664062 L 391.554688 285.269531 C 393.769531 282.925781 394.378906 279.492188 393.101562 276.53125 C 391.828125 273.570312 388.914062 271.652344 385.691406 271.652344 L 369.347656 271.652344 C 359 271.652344 350.613281 263.265625 350.613281 252.921875 L 350.613281 127.460938 C 350.613281 117.117188 342.226562 108.730469 331.878906 108.730469 L 273.5 108.730469 C 263.15625 108.730469 254.765625 117.117188 254.765625 127.460938 L 254.765625 252.921875 C 254.765625 263.265625 246.378906 271.652344 236.03125 271.652344 L 219.691406 271.652344 C 216.464844 271.652344 213.554688 273.570312 212.277344 276.53125 C 211.003906 279.492188 211.609375 282.925781 213.824219 285.269531 L 289.820312 365.664062 C 293.167969 369.203125 297.820312 371.207031 302.691406 371.207031 C 307.558594 371.207031 312.214844 369.203125 315.558594 365.664062 Z M 315.558594 365.664062 " clip-rule="nonzero"/></clipPath><clipPath id="a4e4a0274a"><path d="M 250.355469 401.4375 L 355.035156 401.4375 L 355.035156 506.117188 L 250.355469 506.117188 Z M 250.355469 401.4375 " clip-rule="nonzero"/></clipPath><clipPath id="5ce4fb750d"><path d="M 302.695312 401.4375 C 273.789062 401.4375 250.355469 424.871094 250.355469 453.777344 C 250.355469 482.683594 273.789062 506.117188 302.695312 506.117188 C 331.601562 506.117188 355.035156 482.683594 355.035156 453.777344 C 355.035156 424.871094 331.601562 401.4375 302.695312 401.4375 Z M 302.695312 401.4375 " clip-rule="nonzero"/></clipPath><clipPath id="27f276427a"><path d="M 0.355469 0.4375 L 105.035156 0.4375 L 105.035156 105.117188 L 0.355469 105.117188 Z M 0.355469 0.4375 " clip-rule="nonzero"/></clipPath><clipPath id="ea0ac7b2fc"><path d="M 52.695312 0.4375 C 23.789062 0.4375 0.355469 23.871094 0.355469 52.777344 C 0.355469 81.683594 23.789062 105.117188 52.695312 105.117188 C 81.601562 105.117188 105.035156 81.683594 105.035156 52.777344 C 105.035156 23.871094 81.601562 0.4375 52.695312 0.4375 Z M 52.695312 0.4375 " clip-rule="nonzero"/></clipPath><clipPath id="718f3d1326"><rect x="0" width="106" y="0" height="106"/></clipPath></defs><g clip-path="url(#756af95a4f)"><g clip-path="url(#c24459ddd7)"><g clip-path="url(#d08c520559)"><path fill="#ffffff" d="M 38.515625 47.003906 L 568.484375 47.003906 L 568.484375 576.976562 L 38.515625 576.976562 Z M 38.515625 47.003906 " fill-opacity="1" fill-rule="nonzero"/></g></g></g><g clip-path="url(#0b769183d7)"><g clip-path="url(#4a99638c46)">
<path stroke-linecap="butt" transform="matrix(0.562037, 0, 0, 0.562037, 38.512759, 47.004193)" fill="none" stroke-linejoin="miter" d="M 99.997059 -0.000509801 L 842.941414 -0.000509801 C 898.167389 -0.000509801 942.933373 44.772424 942.933373 99.998399 L 942.933373 842.942755 C 942.933373 898.16178 898.167389 942.934714 842.941414 942.934714 L 99.997059 942.934714 C 44.771084 942.934714 0.00509986 898.16178 0.00509986 842.942755 L 0.00509986 99.998399 C 0.00509986 44.772424 44.771084 -0.000509801 99.997059 -0.000509801 Z M 99.997059 -0.000509801 " stroke="#0792e2ff" stroke-width="120" stroke-opacity="1" stroke-miterlimit="4"/></g></g><g clip-path="url(#059ecd3daf)"><g clip-path="url(#31a0492d20)"><path stroke-linecap="butt" transform="matrix(0.562037, 0, 0, 0.562037, 35.467965, 45.568034)" fill="none" stroke-linejoin="miter" d="M 100.000306 0.00405383 L 854.558379 0.00405383 C 909.791305 0.00405383 954.557288 44.770038 954.557288 99.996013 L 954.557288 853.0042 C 954.557288 908.230176 909.791305 953.00311 854.558379 953.00311 L 100.000306 953.00311 C 44.76738 953.00311 0.00139676 908.230176 0.00139676 853.0042 L 0.00139676 99.996013 C 0.00139676 44.770038 44.76738 0.00405383 100.000306 0.00405383 Z M 100.000306 0.00405383 " stroke="#000000" stroke-width="20" stroke-opacity="1" stroke-miterlimit="4"/></g></g><g clip-path="url(#0a3e1a6906)"><g clip-path="url(#98ca760821)"><g clip-path="url(#caae753f76)"><path fill="#ffffff" d="M 66.574219 77.28125 L 539.667969 77.28125 L 539.667969 546.703125 L 66.574219 546.703125 Z M 66.574219 77.28125 " fill-opacity="1" fill-rule="nonzero"/></g></g></g><g clip-path="url(#ec290c5857)"><g clip-path="url(#af901bc5a3)"><path stroke-linecap="butt" transform="matrix(0.562037, 0, 0, 0.562037, 66.573846, 77.280498)" fill="none" stroke-linejoin="miter" d="M 51.00094 0.0013372 L 792.096553 0.0013372 C 805.621565 0.0013372 818.590565 5.373811 828.160936 14.937232 C 837.724357 24.500653 843.096831 37.476603 843.096831 51.001615 L 843.096831 784.215746 C 843.096831 797.740758 837.724357 810.709757 828.160936 820.273178 C 818.590565 829.843549 805.621565 835.216023 792.096553 835.216023 L 51.00094 835.216023 C 37.475928 835.216023 24.499979 829.843549 14.936558 820.273178 C 5.373137 810.709757 0.000662847 797.740758 0.000662847 784.215746 L 0.000662847 51.001615 C 0.000662847 37.476603 5.373137 24.500653 14.936558 14.937232 C 24.499979 5.373811 37.475928 0.0013372 51.00094 0.0013372 Z M 51.00094 0.0013372 " stroke="#000000" stroke-width="20" stroke-opacity="1" stroke-miterlimit="4"/></g></g><g clip-path="url(#b652751f28)"><g clip-path="url(#fba0ff37b5)"><g clip-path="url(#ef62920191)"><path fill="#d9d9d9" d="M 148.6875 121.542969 L 240.5625 121.542969 L 240.5625 213.414062 L 148.6875 213.414062 Z M 148.6875 121.542969 " fill-opacity="1" fill-rule="nonzero"/></g></g></g><g clip-path="url(#0533fcc5e1)"><g clip-path="url(#fb5d2ca41b)"><path stroke-linecap="butt" transform="matrix(0.562037, 0, 0, 0.562037, 148.689528, 121.542136)" fill="none" stroke-linejoin="miter" d="M 49.995846 0.00148193 L 113.457762 0.00148193 C 141.070749 0.00148193 163.450266 22.380999 163.450266 49.993986 L 163.450266 113.455902 C 163.450266 141.068889 141.070749 163.455356 113.457762 163.455356 L 49.995846 163.455356 C 22.382859 163.455356 -0.00360824 141.068889 -0.00360824 113.455902 L -0.00360824 49.993986 C -0.00360824 22.380999 22.382859 0.00148193 49.995846 0.00148193 Z M 49.995846 0.00148193 " stroke="#000000" stroke-width="20" stroke-opacity="1" stroke-miterlimit="4"/></g></g><g clip-path="url(#78aa7d35a0)"><g clip-path="url(#33662cd782)"><g clip-path="url(#f11da5bd12)"><path fill="#d9d9d9" d="M 255.734375 121.035156 L 347.609375 121.035156 L 347.609375 212.910156 L 255.734375 212.910156 Z M 255.734375 121.035156 " fill-opacity="1" fill-rule="nonzero"/></g></g></g><g clip-path="url(#615198ef22)"><g clip-path="url(#fcd28db1ef)"><path stroke-linecap="butt" transform="matrix(0.562037, 0, 0, 0.562037, 255.736353, 121.036639)" fill="none" stroke-linejoin="miter" d="M 49.995934 -0.0026384 L 113.45785 -0.0026384 C 141.063887 -0.0026384 163.450354 22.383829 163.450354 49.996816 L 163.450354 113.451781 C 163.450354 141.071719 141.063887 163.451236 113.45785 163.451236 L 49.995934 163.451236 C 22.382947 163.451236 -0.00352014 141.071719 -0.00352014 113.451781 L -0.00352014 49.996816 C -0.00352014 22.383829 22.382947 -0.0026384 49.995934 -0.0026384 Z M 49.995934 -0.0026384 " stroke="#000000" stroke-width="20" stroke-opacity="1" stroke-miterlimit="4"/></g></g><g clip-path="url(#a277f04ae2)"><g clip-path="url(#5d38d74d1d)"><g clip-path="url(#af802416b7)"><path fill="#d9d9d9" d="M 362.863281 121.542969 L 454.734375 121.542969 L 454.734375 213.414062 L 362.863281 213.414062 Z M 362.863281 121.542969 " fill-opacity="1" fill-rule="nonzero"/></g></g></g><g clip-path="url(#4408d4a4b4)"><g clip-path="url(#c2f3ee08fd)"><path stroke-linecap="butt" transform="matrix(0.562037, 0, 0, 0.562037, 362.861966, 121.542136)" fill="none" stroke-linejoin="miter" d="M 49.994844 0.00148193 L 113.45676 0.00148193 C 141.069747 0.00148193 163.456214 22.380999 163.456214 49.993986 L 163.456214 113.455902 C 163.456214 141.068889 141.069747 163.455356 113.45676 163.455356 L 49.994844 163.455356 C 22.388807 163.455356 0.00234 141.068889 0.00234 113.455902 L 0.00234 49.993986 C 0.00234 22.380999 22.388807 0.00148193 49.994844 0.00148193 Z M 49.994844 0.00148193 " stroke="#000000" stroke-width="20" stroke-opacity="1" stroke-miterlimit="4"/></g></g><g clip-path="url(#c6e641667b)"><g clip-path="url(#90004e0b6e)"><g clip-path="url(#652ff891d6)"><path fill="#d7f0ff" d="M 100.210938 353.113281 L 516.167969 353.113281 L 516.167969 503.945312 L 100.210938 503.945312 Z M 100.210938 353.113281 " fill-opacity="1" fill-rule="nonzero"/></g></g></g><g clip-path="url(#37d3b43af6)"><g clip-path="url(#b1abfc7018)"><path stroke-linecap="butt" transform="matrix(0.562037, 0, 0, 0.562037, 100.209837, 353.115676)" fill="none" stroke-linejoin="miter" d="M 75.00114 -0.00426038 L 665.215719 -0.00426038 C 706.638675 -0.00426038 740.214901 33.578915 740.214901 74.994921 L 740.214901 193.356155 C 740.214901 234.779111 706.638675 268.355336 665.215719 268.355336 L 75.00114 268.355336 C 33.578184 268.355336 0.00195826 234.779111 0.00195826 193.356155 L 0.00195826 74.994921 C 0.00195826 33.578915 33.578184 -0.00426038 75.00114 -0.00426038 Z M 75.00114 -0.00426038 " stroke="#000000" stroke-width="20" stroke-opacity="1" stroke-miterlimit="4"/></g></g><g clip-path="url(#4d2458cd1e)"><g clip-path="url(#f2ec02e647)"><g clip-path="url(#826429f5aa)"><path fill="#ffe372" d="M 237.328125 364.1875 L 366.015625 364.1875 L 366.015625 492.871094 L 237.328125 492.871094 Z M 237.328125 364.1875 " fill-opacity="1" fill-rule="nonzero"/></g></g></g><g clip-path="url(#e3ed8d4187)"><g clip-path="url(#beb14a740f)"><g clip-path="url(#f56db34039)"><path fill="#ffffff" d="M 163.226562 374.148438 L 274.78125 374.148438 L 274.78125 447.371094 L 163.226562 447.371094 Z M 163.226562 374.148438 " fill-opacity="1" fill-rule="nonzero"/></g></g></g><g clip-path="url(#bbd11a6fb1)"><g clip-path="url(#f49dec7c34)"><g clip-path="url(#1ed4f67e06)"><path fill="#ffffff" d="M 301.941406 374.148438 L 413.5 374.148438 L 413.5 447.371094 L 301.941406 447.371094 Z M 301.941406 374.148438 " fill-opacity="1" fill-rule="nonzero"/></g></g></g><g clip-path="url(#3788459bd3)"><g clip-path="url(#34cbdbc69b)"><g clip-path="url(#8ed573069c)"><path fill="#ffffff" d="M 366.015625 404.910156 L 477.570312 404.910156 L 477.570312 478.136719 L 366.015625 478.136719 Z M 366.015625 404.910156 " fill-opacity="1" fill-rule="nonzero"/></g></g></g><path fill="#000000" d="M 162.957031 457.746094 C 158.371094 457.746094 153.945312 457.035156 149.675781 455.613281 C 145.414062 454.195312 142.066406 452.351562 139.628906 450.085938 L 142.851562 443.296875 C 145.167969 445.390625 148.144531 447.089844 151.773438 448.402344 C 155.402344 449.707031 159.128906 450.355469 162.957031 450.355469 C 168.003906 450.355469 171.777344 449.503906 174.277344 447.792969 C 176.773438 446.078125 178.023438 443.796875 178.023438 440.953125 C 178.023438 438.863281 177.339844 437.167969 175.976562 435.859375 C 174.609375 434.550781 172.921875 433.546875 170.917969 432.851562 C 168.917969 432.15625 166.09375 431.375 162.441406 430.5 C 157.851562 429.398438 154.144531 428.296875 151.328125 427.195312 C 148.519531 426.09375 146.109375 424.398438 144.101562 422.101562 C 142.105469 419.808594 141.105469 416.714844 141.105469 412.828125 C 141.105469 409.582031 141.960938 406.65625 143.671875 404.046875 C 145.386719 401.433594 147.984375 399.339844 151.46875 397.769531 C 154.949219 396.203125 159.273438 395.417969 164.441406 395.417969 C 168.039062 395.417969 171.578125 395.882812 175.0625 396.8125 C 178.542969 397.742188 181.53125 399.078125 184.03125 400.816406 L 181.152344 407.78125 C 178.597656 406.160156 175.871094 404.925781 172.964844 404.082031 C 170.070312 403.238281 167.230469 402.816406 164.441406 402.816406 C 159.507812 402.816406 155.808594 403.71875 153.34375 405.523438 C 150.875 407.320312 149.640625 409.636719 149.640625 412.476562 C 149.640625 414.570312 150.335938 416.273438 151.726562 417.582031 C 153.121094 418.890625 154.851562 419.902344 156.914062 420.628906 C 158.972656 421.347656 161.773438 422.113281 165.308594 422.921875 C 169.898438 424.03125 173.582031 425.136719 176.363281 426.234375 C 179.148438 427.335938 181.539062 429.019531 183.539062 431.28125 C 185.542969 433.546875 186.550781 436.597656 186.550781 440.425781 C 186.550781 443.621094 185.675781 446.535156 183.9375 449.175781 C 182.195312 451.816406 179.554688 453.902344 176.011719 455.4375 C 172.472656 456.976562 168.121094 457.746094 162.957031 457.746094 Z M 162.957031 457.746094 " fill-opacity="1" fill-rule="nonzero"/><path fill="#000000" d="M 241.042969 410.910156 L 241.042969 457.054688 L 233.128906 457.054688 L 233.128906 450.085938 C 231.441406 452.46875 229.21875 454.316406 226.464844 455.625 C 223.707031 456.929688 220.707031 457.582031 217.460938 457.582031 C 211.300781 457.582031 206.449219 455.882812 202.90625 452.488281 C 199.371094 449.09375 197.601562 444.085938 197.601562 437.464844 L 197.601562 410.910156 L 205.960938 410.910156 L 205.960938 436.503906 C 205.960938 440.976562 207.035156 444.363281 209.183594 446.65625 C 211.328125 448.945312 214.40625 450.085938 218.410156 450.085938 C 222.816406 450.085938 226.300781 448.753906 228.855469 446.082031 C 231.414062 443.414062 232.695312 439.644531 232.695312 434.773438 L 232.695312 410.910156 Z M 241.042969 410.910156 " fill-opacity="1" fill-rule="nonzero"/><path fill="#000000" d="M 281.617188 410.476562 C 287.480469 410.476562 292.136719 412.171875 295.585938 415.570312 C 299.035156 418.964844 300.761719 423.941406 300.761719 430.5 L 300.761719 457.054688 L 292.414062 457.054688 L 292.414062 431.457031 C 292.414062 426.996094 291.335938 423.632812 289.183594 421.363281 C 287.035156 419.101562 283.960938 417.96875 279.957031 417.96875 C 275.425781 417.96875 271.855469 419.289062 269.242188 421.925781 C 266.632812 424.566406 265.332031 428.351562 265.332031 433.285156 L 265.332031 457.054688 L 256.984375 457.054688 L 256.984375 410.910156 L 264.992188 410.910156 L 264.992188 417.875 C 266.667969 415.496094 268.945312 413.667969 271.816406 412.394531 C 274.691406 411.117188 277.957031 410.476562 281.617188 410.476562 Z M 281.617188 410.476562 " fill-opacity="1" fill-rule="nonzero"/><path fill="#000000" d="M 360.050781 392.457031 L 360.050781 457.054688 L 352.042969 457.054688 L 352.042969 449.738281 C 350.183594 452.296875 347.832031 454.246094 344.992188 455.578125 C 342.148438 456.914062 339.015625 457.582031 335.589844 457.582031 C 331.117188 457.582031 327.105469 456.59375 323.566406 454.617188 C 320.027344 452.644531 317.257812 449.875 315.25 446.304688 C 313.253906 442.738281 312.253906 438.632812 312.253906 433.988281 C 312.253906 429.34375 313.253906 425.253906 315.25 421.714844 C 317.257812 418.175781 320.027344 415.414062 323.566406 413.4375 C 327.105469 411.464844 331.117188 410.476562 335.589844 410.476562 C 338.898438 410.476562 341.941406 411.101562 344.722656 412.347656 C 347.511719 413.597656 349.832031 415.441406 351.691406 417.875 L 351.691406 392.457031 Z M 336.28125 450.261719 C 339.183594 450.261719 341.824219 449.585938 344.207031 448.226562 C 346.589844 446.863281 348.445312 444.945312 349.78125 442.476562 C 351.117188 440.011719 351.785156 437.179688 351.785156 433.988281 C 351.785156 430.796875 351.117188 427.964844 349.78125 425.5 C 348.445312 423.035156 346.589844 421.132812 344.207031 419.796875 C 341.824219 418.460938 339.183594 417.792969 336.28125 417.792969 C 333.320312 417.792969 330.667969 418.460938 328.320312 419.796875 C 325.96875 421.132812 324.109375 423.035156 322.746094 425.5 C 321.378906 427.964844 320.695312 430.796875 320.695312 433.988281 C 320.695312 437.179688 321.378906 440.011719 322.746094 442.476562 C 324.109375 444.945312 325.96875 446.863281 328.320312 448.226562 C 330.667969 449.585938 333.320312 450.261719 336.28125 450.261719 Z M 336.28125 450.261719 " fill-opacity="1" fill-rule="nonzero"/><path fill="#000000" d="M 392.703125 410.476562 C 399.078125 410.476562 403.964844 412.042969 407.359375 415.183594 C 410.757812 418.316406 412.453125 422.988281 412.453125 429.199219 L 412.453125 457.054688 L 404.539062 457.054688 L 404.539062 450.964844 C 403.140625 453.113281 401.148438 454.753906 398.566406 455.882812 C 395.992188 457.015625 392.929688 457.582031 389.386719 457.582031 C 384.21875 457.582031 380.082031 456.335938 376.976562 453.835938 C 373.875 451.335938 372.328125 448.058594 372.328125 444 C 372.328125 439.933594 373.804688 436.667969 376.765625 434.199219 C 379.722656 431.734375 384.421875 430.5 390.863281 430.5 L 404.105469 430.5 L 404.105469 428.847656 C 404.105469 425.25 403.058594 422.496094 400.96875 420.582031 C 398.875 418.660156 395.796875 417.699219 391.742188 417.699219 C 389.007812 417.699219 386.335938 418.152344 383.71875 419.058594 C 381.113281 419.957031 378.910156 421.160156 377.117188 422.664062 L 373.628906 416.402344 C 376.007812 414.488281 378.851562 413.023438 382.164062 412.007812 C 385.472656 410.988281 388.984375 410.476562 392.703125 410.476562 Z M 390.78125 451.128906 C 393.972656 451.128906 396.730469 450.421875 399.046875 449 C 401.371094 447.578125 403.058594 445.566406 404.105469 442.957031 L 404.105469 436.503906 L 391.214844 436.503906 C 384.132812 436.503906 380.59375 438.886719 380.59375 443.648438 C 380.59375 445.964844 381.488281 447.792969 383.289062 449.128906 C 385.089844 450.460938 387.585938 451.128906 390.78125 451.128906 Z M 390.78125 451.128906 " fill-opacity="1" fill-rule="nonzero"/><path fill="#000000" d="M 467.917969 410.910156 L 445.539062 461.667969 C 443.5625 466.367188 441.253906 469.671875 438.609375 471.585938 C 435.96875 473.503906 432.796875 474.464844 429.089844 474.464844 C 426.824219 474.464844 424.628906 474.101562 422.507812 473.378906 C 420.390625 472.652344 418.636719 471.589844 417.238281 470.203125 L 420.8125 463.929688 C 423.191406 466.191406 425.949219 467.324219 429.089844 467.324219 C 431.117188 467.324219 432.8125 466.785156 434.171875 465.707031 C 435.535156 464.636719 436.773438 462.796875 437.882812 460.191406 L 439.359375 456.972656 L 418.984375 410.910156 L 427.695312 410.910156 L 443.796875 447.828125 L 459.730469 410.910156 Z M 467.917969 410.910156 " fill-opacity="1" fill-rule="nonzero"/><path fill="#000000" d="M 207.328125 184.058594 L 207.28125 161.800781 L 196.25 180.21875 L 193.464844 180.21875 L 182.433594 162.09375 L 182.433594 184.058594 L 176.488281 184.058594 L 176.488281 150.488281 L 181.617188 150.488281 L 194.953125 172.734375 L 208.042969 150.488281 L 213.171875 150.488281 L 213.230469 184.058594 Z M 207.328125 184.058594 " fill-opacity="1" fill-rule="nonzero"/><path fill="#000000" d="M 434.933594 150.488281 L 423.808594 184.058594 L 417.191406 184.058594 L 408.890625 159.210938 L 400.449219 184.058594 L 393.785156 184.058594 L 382.664062 150.488281 L 389.136719 150.488281 L 397.476562 176.003906 L 406.164062 150.488281 L 411.914062 150.488281 L 420.402344 176.144531 L 428.984375 150.488281 Z M 434.933594 150.488281 " fill-opacity="1" fill-rule="nonzero"/><path fill="#000000" d="M 282.757812 155.25 L 271.625 155.25 L 271.625 149.984375 L 300.113281 149.984375 L 300.113281 155.25 L 288.988281 155.25 L 288.988281 183.550781 L 282.757812 183.550781 Z M 282.757812 155.25 " fill-opacity="1" fill-rule="nonzero"/><path fill="#000000" d="M 328.40625 157.945312 L 328.40625 183.550781 L 322.703125 183.550781 L 322.703125 180.285156 C 321.742188 181.441406 320.542969 182.332031 319.109375 182.957031 C 317.671875 183.578125 316.121094 183.890625 314.460938 183.890625 C 311.03125 183.890625 308.335938 182.941406 306.367188 181.035156 C 304.402344 179.132812 303.417969 176.3125 303.417969 172.570312 L 303.417969 157.945312 L 309.414062 157.945312 L 309.414062 171.75 C 309.414062 174.054688 309.929688 175.773438 310.96875 176.914062 C 312.015625 178.046875 313.492188 178.613281 315.410156 178.613281 C 317.554688 178.613281 319.261719 177.949219 320.523438 176.621094 C 321.789062 175.292969 322.421875 173.386719 322.421875 170.894531 L 322.421875 157.945312 Z M 328.40625 157.945312 " fill-opacity="1" fill-rule="nonzero"/><g clip-path="url(#467b97f67d)"><g clip-path="url(#695923188f)"><g clip-path="url(#0e44c0ce01)"><path fill="#d9d9d9" d="M 255.734375 237.078125 L 347.609375 237.078125 L 347.609375 328.945312 L 255.734375 328.945312 Z M 255.734375 237.078125 " fill-opacity="1" fill-rule="nonzero"/></g></g></g><g clip-path="url(#9eb5b4321e)"><g clip-path="url(#e7088cfcfd)"><path stroke-linecap="butt" transform="matrix(0.562037, 0, 0, 0.562037, 255.736353, 237.076032)" fill="none" stroke-linejoin="miter" d="M 49.995934 0.00372477 L 113.45785 0.00372477 C 141.063887 0.00372477 163.450354 22.383242 163.450354 49.996229 L 163.450354 113.458145 C 163.450354 141.071132 141.063887 163.457599 113.45785 163.457599 L 49.995934 163.457599 C 22.382947 163.457599 -0.00352014 141.071132 -0.00352014 113.458145 L -0.00352014 49.996229 C -0.00352014 22.383242 22.382947 0.00372477 49.995934 0.00372477 Z M 49.995934 0.00372477 " stroke="#000000" stroke-width="20" stroke-opacity="1" stroke-miterlimit="4"/></g></g><g clip-path="url(#74fa5a125c)"><g clip-path="url(#30dd958822)"><g clip-path="url(#04ef82eea7)"><path fill="#d9d9d9" d="M 148.613281 237.078125 L 240.480469 237.078125 L 240.480469 328.945312 L 148.613281 328.945312 Z M 148.613281 237.078125 " fill-opacity="1" fill-rule="nonzero"/></g></g></g><g clip-path="url(#578e8d4981)"><g clip-path="url(#a882c15c50)"><path stroke-linecap="butt" transform="matrix(0.562037, 0, 0, 0.562037, 148.610683, 237.076032)" fill="none" stroke-linejoin="miter" d="M 49.997127 0.00372477 L 113.452092 0.00372477 C 141.07203 0.00372477 163.458497 22.383242 163.458497 49.996229 L 163.458497 113.458145 C 163.458497 141.071132 141.07203 163.457599 113.452092 163.457599 L 49.997127 163.457599 C 22.384139 163.457599 0.00462245 141.071132 0.00462245 113.458145 L 0.00462245 49.996229 C 0.00462245 22.383242 22.384139 0.00372477 49.997127 0.00372477 Z M 49.997127 0.00372477 " stroke="#000000" stroke-width="20" stroke-opacity="1" stroke-miterlimit="4"/></g></g><g clip-path="url(#61d4bc626a)"><g clip-path="url(#0cf54b8e63)"><g clip-path="url(#2d0843a500)"><path fill="#d9d9d9" d="M 362.863281 237.078125 L 454.734375 237.078125 L 454.734375 328.945312 L 362.863281 328.945312 Z M 362.863281 237.078125 " fill-opacity="1" fill-rule="nonzero"/></g></g></g><g clip-path="url(#769e593613)"><g clip-path="url(#13c8a9a0cd)"><path stroke-linecap="butt" transform="matrix(0.562037, 0, 0, 0.562037, 362.861966, 237.076032)" fill="none" stroke-linejoin="miter" d="M 49.994844 0.00372477 L 113.45676 0.00372477 C 141.069747 0.00372477 163.456214 22.383242 163.456214 49.996229 L 163.456214 113.458145 C 163.456214 141.071132 141.069747 163.457599 113.45676 163.457599 L 49.994844 163.457599 C 22.388807 163.457599 0.00234 141.071132 0.00234 113.458145 L 0.00234 49.996229 C 0.00234 22.383242 22.388807 0.00372477 49.994844 0.00372477 Z M 49.994844 0.00372477 " stroke="#000000" stroke-width="20" stroke-opacity="1" stroke-miterlimit="4"/></g></g><path fill="#000000" d="M 297.398438 271.246094 L 297.398438 281.464844 L 313.605469 281.464844 L 313.605469 286.734375 L 297.398438 286.734375 L 297.398438 299.59375 L 291.160156 299.59375 L 291.160156 266.023438 L 315.664062 266.023438 L 315.664062 271.246094 Z M 297.398438 271.246094 " fill-opacity="1" fill-rule="nonzero"/><path fill="#000000" d="M 175.007812 271.292969 L 163.871094 271.292969 L 163.871094 266.023438 L 192.359375 266.023438 L 192.359375 271.292969 L 181.238281 271.292969 L 181.238281 299.59375 L 175.007812 299.59375 Z M 175.007812 271.292969 " fill-opacity="1" fill-rule="nonzero"/><path fill="#000000" d="M 211.019531 273.691406 C 214.253906 273.691406 216.839844 274.636719 218.785156 276.523438 C 220.734375 278.40625 221.710938 281.207031 221.710938 284.921875 L 221.710938 299.59375 L 215.714844 299.59375 L 215.714844 285.679688 C 215.714844 283.441406 215.1875 281.757812 214.136719 280.625 C 213.082031 279.492188 211.578125 278.925781 209.628906 278.925781 C 207.425781 278.925781 205.683594 279.589844 204.40625 280.914062 C 203.121094 282.246094 202.484375 284.152344 202.484375 286.640625 L 202.484375 299.59375 L 196.488281 299.59375 L 196.488281 264.007812 L 202.484375 264.007812 L 202.484375 276.957031 C 203.472656 275.90625 204.699219 275.097656 206.148438 274.535156 C 207.609375 273.972656 209.230469 273.691406 211.019531 273.691406 Z M 211.019531 273.691406 " fill-opacity="1" fill-rule="nonzero"/><path fill="#000000" d="M 394.296875 300.070312 C 391.703125 300.070312 389.203125 299.703125 386.789062 298.972656 C 384.378906 298.238281 382.464844 297.261719 381.054688 296.042969 L 383.21875 291.195312 C 384.59375 292.28125 386.277344 293.171875 388.277344 293.867188 C 390.273438 294.554688 392.28125 294.898438 394.296875 294.898438 C 396.785156 294.898438 398.644531 294.5 399.882812 293.703125 C 401.113281 292.898438 401.730469 291.839844 401.730469 290.527344 C 401.730469 289.570312 401.386719 288.777344 400.699219 288.152344 C 400.011719 287.527344 399.136719 287.039062 398.078125 286.6875 C 397.023438 286.335938 395.585938 285.9375 393.769531 285.496094 C 391.207031 284.886719 389.136719 284.277344 387.550781 283.667969 C 385.972656 283.058594 384.617188 282.109375 383.476562 280.824219 C 382.34375 279.527344 381.777344 277.773438 381.777344 275.566406 C 381.777344 273.710938 382.28125 272.023438 383.289062 270.507812 C 384.296875 268.984375 385.8125 267.777344 387.84375 266.886719 C 389.871094 265.992188 392.359375 265.542969 395.304688 265.542969 C 397.347656 265.542969 399.359375 265.800781 401.34375 266.316406 C 403.328125 266.824219 405.035156 267.554688 406.472656 268.515625 L 404.507812 273.351562 C 403.035156 272.496094 401.503906 271.839844 399.90625 271.398438 C 398.304688 270.945312 396.753906 270.71875 395.257812 270.71875 C 392.789062 270.71875 390.953125 271.136719 389.753906 271.96875 C 388.558594 272.796875 387.960938 273.898438 387.960938 275.273438 C 387.960938 276.230469 388.304688 277.015625 388.992188 277.625 C 389.675781 278.234375 390.550781 278.714844 391.601562 279.066406 C 392.664062 279.417969 394.101562 279.816406 395.921875 280.261719 C 398.421875 280.839844 400.464844 281.441406 402.058594 282.0625 C 403.65625 282.691406 405.023438 283.640625 406.15625 284.921875 C 407.296875 286.195312 407.867188 287.917969 407.867188 290.097656 C 407.867188 291.953125 407.363281 293.636719 406.355469 295.140625 C 405.347656 296.640625 403.820312 297.839844 401.777344 298.738281 C 399.730469 299.628906 397.238281 300.070312 394.296875 300.070312 Z M 394.296875 300.070312 " fill-opacity="1" fill-rule="nonzero"/><path fill="#000000" d="M 423.253906 273.691406 C 427.03125 273.691406 429.921875 274.597656 431.917969 276.40625 C 433.917969 278.210938 434.917969 280.9375 434.917969 284.582031 L 434.917969 299.59375 L 429.25 299.59375 L 429.25 296.476562 C 428.515625 297.59375 427.46875 298.449219 426.113281 299.042969 C 424.753906 299.632812 423.113281 299.929688 421.195312 299.929688 C 419.28125 299.929688 417.601562 299.605469 416.160156 298.949219 C 414.722656 298.292969 413.609375 297.386719 412.824219 296.21875 C 412.039062 295.050781 411.652344 293.726562 411.652344 292.25 C 411.652344 289.949219 412.507812 288.101562 414.214844 286.710938 C 415.925781 285.324219 418.621094 284.628906 422.308594 284.628906 L 428.921875 284.628906 L 428.921875 284.242188 C 428.921875 282.457031 428.382812 281.078125 427.304688 280.121094 C 426.234375 279.160156 424.648438 278.679688 422.539062 278.679688 C 421.105469 278.679688 419.6875 278.90625 418.289062 279.359375 C 416.898438 279.804688 415.726562 280.425781 414.765625 281.21875 L 412.425781 276.851562 C 413.765625 275.832031 415.378906 275.050781 417.261719 274.511719 C 419.148438 273.964844 421.148438 273.691406 423.253906 273.691406 Z M 422.445312 295.5625 C 423.945312 295.5625 425.273438 295.222656 426.441406 294.535156 C 427.609375 293.847656 428.4375 292.863281 428.921875 291.582031 L 428.921875 288.609375 L 422.726562 288.609375 C 419.277344 288.609375 417.554688 289.746094 417.554688 292.015625 C 417.554688 293.101562 417.980469 293.964844 418.839844 294.605469 C 419.707031 295.246094 420.90625 295.5625 422.445312 295.5625 Z M 422.445312 295.5625 " fill-opacity="1" fill-rule="nonzero"/><g clip-path="url(#3fd2c448e5)"><g clip-path="url(#631852af49)"><g transform="matrix(1, 0, 0, 1, 80, 91)"><g clip-path="url(#f9ee5f6077)"><g clip-path="url(#77c3ac3c59)"><g clip-path="url(#d85ca535b9)"><path fill="#ffffff" d="M 0.421875 0.378906 L 444.140625 0.378906 L 444.140625 437.269531 L 0.421875 437.269531 Z M 0.421875 0.378906 " fill-opacity="1" fill-rule="nonzero"/></g></g></g></g></g></g><g clip-path="url(#c5fa789388)"><g clip-path="url(#13abe38410)"><g transform="matrix(1, 0, 0, 1, 211, 108)"><g clip-path="url(#dda792c231)"><g clip-path="url(#81915e5866)"><g clip-path="url(#ed5e6ca95f)">
<path fill="#0792e2ff" d="M 193.425781 0.726562 L 193.425781 270.972656 L -10.050781 270.972656 L -10.050781 0.726562 Z M 193.425781 0.726562 " fill-opacity="1" fill-rule="nonzero"/></g></g></g></g></g></g><g clip-path="url(#90b2edd3b0)"><g clip-path="url(#053213a0b0)"><path stroke-linecap="butt" transform="matrix(0, 0.749383, -0.749383, 0, 404.425009, 108.728758)" fill="none" stroke-linejoin="miter" d="M 342.862366 118.586075 L 235.581433 17.174552 C 232.453861 14.218997 227.871968 13.405828 223.920802 15.110355 C 219.969636 16.809669 217.410239 20.698283 217.410239 24.998695 L 217.410239 46.808297 C 217.410239 60.616527 206.218744 71.808023 192.415726 71.808023 L 24.996796 71.808023 C 11.193778 71.808023 0.00228305 82.999518 0.00228305 96.807748 L 0.00228305 174.710355 C 0.00228305 188.513373 11.193778 199.71008 24.996796 199.71008 L 192.415726 199.71008 C 206.218744 199.71008 217.410239 210.901576 217.410239 224.709806 L 217.410239 246.514196 C 217.410239 250.81982 219.969636 254.703222 223.920802 256.407748 C 227.871968 258.107063 232.453861 257.299106 235.581433 254.343551 L 342.862366 152.932028 C 347.584999 148.464813 350.259073 142.256582 350.259073 135.756445 C 350.259073 129.261521 347.584999 123.048078 342.862366 118.586075 Z M 342.862366 118.586075 " stroke="#000000" stroke-width="16" stroke-opacity="1" stroke-miterlimit="4"/></g></g><g clip-path="url(#a4e4a0274a)"><g clip-path="url(#5ce4fb750d)"><g transform="matrix(1, 0, 0, 1, 250, 401)"><g clip-path="url(#718f3d1326)"><g clip-path="url(#27f276427a)"><g clip-path="url(#ea0ac7b2fc)">
<path fill="#0792e2ff" d="M 0.355469 0.4375 L 105.035156 0.4375 L 105.035156 105.117188 L 0.355469 105.117188 Z M 0.355469 0.4375 " fill-opacity="1" fill-rule="nonzero"/></g></g></g></g><path stroke-linecap="butt" transform="matrix(0.749383, 0, 0, 0.749383, 250.354319, 401.437864)" fill="none" stroke-linejoin="miter" d="M 69.845434 -0.000486355 C 31.272043 -0.000486355 0.00153366 31.270023 0.00153366 69.843414 C 0.00153366 108.416805 31.272043 139.687314 69.845434 139.687314 C 108.418825 139.687314 139.689334 108.416805 139.689334 69.843414 C 139.689334 31.270023 108.418825 -0.000486355 69.845434 -0.000486355 Z M 69.845434 -0.000486355 " stroke="#000000" stroke-width="16" stroke-opacity="1" stroke-miterlimit="4"/></g></g></svg>