<svg xmlns="http://www.w3.org/2000/svg" xmlns:xlink="http://www.w3.org/1999/xlink" width="810" zoomAndPan="magnify" viewBox="0 0 607.5 607.499986" height="810" preserveAspectRatio="xMidYMid meet" version="1.0"><defs><clipPath id="aa148cf87b"><path d="M 80.421875 91.378906 L 525 91.378906 L 525 528.269531 L 80.421875 528.269531 Z M 80.421875 91.378906 " clip-rule="nonzero"/></clipPath><clipPath id="444f847e51"><path d="M 108.898438 91.378906 L 496.492188 91.378906 C 504.042969 91.378906 511.285156 94.378906 516.625 99.71875 C 521.964844 105.058594 524.96875 112.304688 524.96875 119.855469 L 524.96875 499.792969 C 524.96875 507.34375 521.964844 514.589844 516.625 519.929688 C 511.285156 525.269531 504.042969 528.269531 496.492188 528.269531 L 108.898438 528.269531 C 101.347656 528.269531 94.101562 525.269531 88.761719 519.929688 C 83.421875 514.589844 80.421875 507.34375 80.421875 499.792969 L 80.421875 119.855469 C 80.421875 112.304688 83.421875 105.058594 88.761719 99.71875 C 94.101562 94.378906 101.347656 91.378906 108.898438 91.378906 Z M 108.898438 91.378906 " clip-rule="nonzero"/></clipPath><clipPath id="a5f132a743"><path d="M 0.421875 0.378906 L 445 0.378906 L 445 437.269531 L 0.421875 437.269531 Z M 0.421875 0.378906 " clip-rule="nonzero"/></clipPath><clipPath id="8d41f0a6e7"><path d="M 28.898438 0.378906 L 416.492188 0.378906 C 424.042969 0.378906 431.285156 3.378906 436.625 8.71875 C 441.964844 14.058594 444.96875 21.304688 444.96875 28.855469 L 444.96875 408.792969 C 444.96875 416.34375 441.964844 423.589844 436.625 428.929688 C 431.285156 434.269531 424.042969 437.269531 416.492188 437.269531 L 28.898438 437.269531 C 21.347656 437.269531 14.101562 434.269531 8.761719 428.929688 C 3.421875 423.589844 0.421875 416.34375 0.421875 408.792969 L 0.421875 28.855469 C 0.421875 21.304688 3.421875 14.058594 8.761719 8.71875 C 14.101562 3.378906 21.347656 0.378906 28.898438 0.378906 Z M 28.898438 0.378906 " clip-rule="nonzero"/></clipPath><clipPath id="9961b2532c"><rect x="0" width="445" y="0" height="438"/></clipPath><clipPath id="f59cec4348"><path d="M 313 40.835938 L 547 40.835938 L 547 371 L 313 371 Z M 313 40.835938 " clip-rule="nonzero"/></clipPath><clipPath id="15e8ea8948"><path d="M 442.699219 365.339844 L 544.101562 258.066406 C 546.316406 255.726562 546.925781 252.289062 545.648438 249.332031 C 544.375 246.371094 541.460938 244.453125 538.238281 244.453125 L 508.457031 244.453125 C 498.109375 244.453125 489.722656 236.066406 489.722656 225.71875 L 489.722656 59.570312 C 489.722656 49.226562 481.335938 40.835938 470.988281 40.835938 L 388.671875 40.835938 C 378.324219 40.835938 369.9375 49.226562 369.9375 59.570312 L 369.9375 225.71875 C 369.9375 236.066406 361.550781 244.453125 351.203125 244.453125 L 321.421875 244.453125 C 318.199219 244.453125 315.285156 246.371094 314.011719 249.332031 C 312.734375 252.289062 313.34375 255.726562 315.558594 258.066406 L 416.960938 365.339844 C 420.304688 368.878906 424.960938 370.882812 429.832031 370.882812 C 434.699219 370.882812 439.355469 368.878906 442.699219 365.339844 Z M 442.699219 365.339844 " clip-rule="nonzero"/></clipPath><clipPath id="b099ace962"><path d="M 0 0.835938 L 233.988281 0.835938 L 233.988281 330.976562 L 0 330.976562 Z M 0 0.835938 " clip-rule="nonzero"/></clipPath><clipPath id="1184e9afa8"><path d="M 129.699219 325.339844 L 231.101562 218.066406 C 233.316406 215.726562 233.925781 212.289062 232.648438 209.332031 C 231.375 206.371094 228.460938 204.453125 225.238281 204.453125 L 195.457031 204.453125 C 185.109375 204.453125 176.722656 196.066406 176.722656 185.71875 L 176.722656 19.570312 C 176.722656 9.226562 168.335938 0.835938 157.988281 0.835938 L 75.671875 0.835938 C 65.324219 0.835938 56.9375 9.226562 56.9375 19.570312 L 56.9375 185.71875 C 56.9375 196.066406 48.550781 204.453125 38.203125 204.453125 L 8.421875 204.453125 C 5.199219 204.453125 2.285156 206.371094 1.011719 209.332031 C -0.265625 212.289062 0.34375 215.726562 2.558594 218.066406 L 103.960938 325.339844 C 107.304688 328.878906 111.960938 330.882812 116.832031 330.882812 C 121.699219 330.882812 126.355469 328.878906 129.699219 325.339844 Z M 129.699219 325.339844 " clip-rule="nonzero"/></clipPath><clipPath id="66947bff27"><rect x="0" width="234" y="0" height="331"/></clipPath><clipPath id="c80f960165"><path d="M 357.40625 401.4375 L 502.269531 401.4375 L 502.269531 546.300781 L 357.40625 546.300781 Z M 357.40625 401.4375 " clip-rule="nonzero"/></clipPath><clipPath id="4d76bdf259"><path d="M 429.835938 401.4375 C 389.835938 401.4375 357.40625 433.867188 357.40625 473.867188 C 357.40625 513.871094 389.835938 546.300781 429.835938 546.300781 C 469.839844 546.300781 502.269531 513.871094 502.269531 473.867188 C 502.269531 433.867188 469.839844 401.4375 429.835938 401.4375 Z M 429.835938 401.4375 " clip-rule="nonzero"/></clipPath><clipPath id="4aa1e2b656"><path d="M 0.40625 0.4375 L 145.269531 0.4375 L 145.269531 145.300781 L 0.40625 145.300781 Z M 0.40625 0.4375 " clip-rule="nonzero"/></clipPath><clipPath id="9ac6fb8828"><path d="M 72.835938 0.4375 C 32.835938 0.4375 0.40625 32.867188 0.40625 72.867188 C 0.40625 112.871094 32.835938 145.300781 72.835938 145.300781 C 112.839844 145.300781 145.269531 112.871094 145.269531 72.867188 C 145.269531 32.867188 112.839844 0.4375 72.835938 0.4375 Z M 72.835938 0.4375 " clip-rule="nonzero"/></clipPath><clipPath id="a116e5365b"><rect x="0" width="146" y="0" height="146"/></clipPath><clipPath id="c40cad0d9e"><path d="M 64 40.835938 L 298 40.835938 L 298 371 L 64 371 Z M 64 40.835938 " clip-rule="nonzero"/></clipPath><clipPath id="e12663e755"><path d="M 193.949219 365.339844 L 295.351562 258.066406 C 297.566406 255.726562 298.175781 252.289062 296.898438 249.332031 C 295.625 246.371094 292.710938 244.453125 289.488281 244.453125 L 259.707031 244.453125 C 249.359375 244.453125 240.972656 236.066406 240.972656 225.71875 L 240.972656 59.570312 C 240.972656 49.226562 232.582031 40.835938 222.238281 40.835938 L 139.921875 40.835938 C 129.574219 40.835938 121.1875 49.226562 121.1875 59.570312 L 121.1875 225.71875 C 121.1875 236.066406 112.800781 244.453125 102.453125 244.453125 L 72.671875 244.453125 C 69.449219 244.453125 66.535156 246.371094 65.257812 249.332031 C 63.984375 252.289062 64.59375 255.726562 66.804688 258.066406 L 168.210938 365.339844 C 171.554688 368.878906 176.210938 370.882812 181.078125 370.882812 C 185.949219 370.882812 190.601562 368.878906 193.949219 365.339844 Z M 193.949219 365.339844 " clip-rule="nonzero"/></clipPath><clipPath id="d45fd22691"><path d="M 0 0.835938 L 234 0.835938 L 234 330.976562 L 0 330.976562 Z M 0 0.835938 " clip-rule="nonzero"/></clipPath><clipPath id="3d1baf3456"><path d="M 129.949219 325.339844 L 231.351562 218.066406 C 233.566406 215.726562 234.175781 212.289062 232.898438 209.332031 C 231.625 206.371094 228.710938 204.453125 225.488281 204.453125 L 195.707031 204.453125 C 185.359375 204.453125 176.972656 196.066406 176.972656 185.71875 L 176.972656 19.570312 C 176.972656 9.226562 168.582031 0.835938 158.238281 0.835938 L 75.921875 0.835938 C 65.574219 0.835938 57.1875 9.226562 57.1875 19.570312 L 57.1875 185.71875 C 57.1875 196.066406 48.800781 204.453125 38.453125 204.453125 L 8.671875 204.453125 C 5.449219 204.453125 2.535156 206.371094 1.257812 209.332031 C -0.015625 212.289062 0.59375 215.726562 2.804688 218.066406 L 104.210938 325.339844 C 107.554688 328.878906 112.210938 330.882812 117.078125 330.882812 C 121.949219 330.882812 126.601562 328.878906 129.949219 325.339844 Z M 129.949219 325.339844 " clip-rule="nonzero"/></clipPath><clipPath id="26808a6cb7"><rect x="0" width="234" y="0" height="331"/></clipPath><clipPath id="3fa79e5457"><path d="M 108.652344 403.304688 L 253.515625 403.304688 L 253.515625 548.164062 L 108.652344 548.164062 Z M 108.652344 403.304688 " clip-rule="nonzero"/></clipPath><clipPath id="88a7e4e5e4"><path d="M 181.085938 403.304688 C 141.082031 403.304688 108.652344 435.730469 108.652344 475.734375 C 108.652344 515.738281 141.082031 548.164062 181.085938 548.164062 C 221.089844 548.164062 253.515625 515.738281 253.515625 475.734375 C 253.515625 435.730469 221.089844 403.304688 181.085938 403.304688 Z M 181.085938 403.304688 " clip-rule="nonzero"/></clipPath><clipPath id="634d8a307e"><path d="M 0.652344 0.304688 L 145.515625 0.304688 L 145.515625 145.164062 L 0.652344 145.164062 Z M 0.652344 0.304688 " clip-rule="nonzero"/></clipPath><clipPath id="1f9cc1b150"><path d="M 73.085938 0.304688 C 33.082031 0.304688 0.652344 32.730469 0.652344 72.734375 C 0.652344 112.738281 33.082031 145.164062 73.085938 145.164062 C 113.089844 145.164062 145.515625 112.738281 145.515625 72.734375 C 145.515625 32.730469 113.089844 0.304688 73.085938 0.304688 Z M 73.085938 0.304688 " clip-rule="nonzero"/></clipPath><clipPath id="469a53ed27"><rect x="0" width="146" y="0" height="146"/></clipPath></defs><g clip-path="url(#aa148cf87b)"><g clip-path="url(#444f847e51)"><g transform="matrix(1, 0, 0, 1, 80, 91)"><g clip-path="url(#9961b2532c)"><g clip-path="url(#a5f132a743)"><g clip-path="url(#8d41f0a6e7)"><path fill="#ffffff" d="M 0.421875 0.378906 L 444.140625 0.378906 L 444.140625 437.269531 L 0.421875 437.269531 Z M 0.421875 0.378906 " fill-opacity="1" fill-rule="nonzero"/></g></g></g></g></g></g><g clip-path="url(#f59cec4348)"><g clip-path="url(#15e8ea8948)"><g transform="matrix(1, 0, 0, 1, 313, 40)"><g clip-path="url(#66947bff27)"><g clip-path="url(#b099ace962)"><g clip-path="url(#1184e9afa8)"><path fill="#000000" d="M 243.972656 0.835938 L 243.972656 338.558594 L -10.3125 338.558594 L -10.3125 0.835938 Z M 243.972656 0.835938 " fill-opacity="1" fill-rule="nonzero"/></g></g></g></g></g></g><g clip-path="url(#c80f960165)"><g clip-path="url(#4d76bdf259)"><g transform="matrix(1, 0, 0, 1, 357, 401)"><g clip-path="url(#a116e5365b)"><g clip-path="url(#4aa1e2b656)"><g clip-path="url(#9ac6fb8828)"><path fill="#000000" d="M 0.40625 0.4375 L 145.269531 0.4375 L 145.269531 145.300781 L 0.40625 145.300781 Z M 0.40625 0.4375 " fill-opacity="1" fill-rule="nonzero"/></g></g></g></g></g></g><g clip-path="url(#c40cad0d9e)"><g clip-path="url(#e12663e755)"><g transform="matrix(1, 0, 0, 1, 64, 40)"><g clip-path="url(#26808a6cb7)"><g clip-path="url(#d45fd22691)"><g clip-path="url(#3d1baf3456)"><path fill="#000000" d="M 244.222656 0.835938 L 244.222656 338.558594 L -10.0625 338.558594 L -10.0625 0.835938 Z M 244.222656 0.835938 " fill-opacity="1" fill-rule="nonzero"/></g></g></g></g></g></g><g clip-path="url(#3fa79e5457)"><g clip-path="url(#88a7e4e5e4)"><g transform="matrix(1, 0, 0, 1, 108, 403)"><g clip-path="url(#469a53ed27)"><g clip-path="url(#634d8a307e)"><g clip-path="url(#1f9cc1b150)"><path fill="#000000" d="M 0.652344 0.304688 L 145.515625 0.304688 L 145.515625 145.164062 L 0.652344 145.164062 Z M 0.652344 0.304688 " fill-opacity="1" fill-rule="nonzero"/></g></g></g></g></g></g></svg>