<svg version="1.1" id="icons_1_" xmlns="http://www.w3.org/2000/svg" x="0" y="0" viewBox="0 0 128 128" style="enable-background:new 0 0 128 128" xml:space="preserve"><style>.st0{fill:#0a0a0a}.st1{display:none}.st2{display:inline}</style><g id="row2_1_"><g id="_x36__3_"><path class="st0" d="M64 .3C28.7.3 0 28.8 0 64s28.7 63.7 64 63.7 64-28.5 64-63.7S99.3.3 64 .3zm0 121C32.2 121.3 6.4 95.7 6.4 64 6.4 32.3 32.2 6.7 64 6.7c12.1 0 23.4 3.7 32.7 10.1 13.7 9.4 23.1 24.5 24.7 41.8 0 .5.1 9.8 0 10.7-2.7 29.2-27.4 52-57.4 52zm-3.2-89.1c-14.5 0-19.1 13.3-19.2 25.5h9.6c-.2-8.8.7-15.9 9.6-15.9 6.4 0 9.6 2.7 9.6 9.6 0 4.4-3.4 6.6-6.4 9.6-6.2 6-5.7 10.4-6 18.7h8.4c.3-7.5.2-7.3 6.4-13.9 4.2-4.1 7.1-8.2 7.1-14.5.1-10.1-5.3-19.1-19.1-19.1zm3.3 54.1c-3.6 0-6.4 2.9-6.4 6.4 0 3.5 2.9 6.4 6.4 6.4 3.6 0 6.4-2.9 6.4-6.4 0-3.6-2.9-6.4-6.4-6.4z" id="transparent"/></g></g></svg>